<?xml version="1.0" encoding="UTF-8" standalone="no"?>
<!-- Created with Inkscape (http://www.inkscape.org/) -->

<svg
   xmlns:dc="http://purl.org/dc/elements/1.1/"
   xmlns:cc="http://creativecommons.org/ns#"
   xmlns:rdf="http://www.w3.org/1999/02/22-rdf-syntax-ns#"
   xmlns:svg="http://www.w3.org/2000/svg"
   xmlns="http://www.w3.org/2000/svg"
   xmlns:sodipodi="http://sodipodi.sourceforge.net/DTD/sodipodi-0.dtd"
   xmlns:inkscape="http://www.inkscape.org/namespaces/inkscape"
   width="81.483276mm"
   height="243.95824mm"
   viewBox="0 0 81.483276 243.95824"
   version="1.1"
   id="svg1567"
   inkscape:version="0.92.2 5c3e80d, 2017-08-06"
   sodipodi:docname="logo.svg">
  <defs
     id="defs1561" />
  <sodipodi:namedview
     id="base"
     pagecolor="#a3c1ad"
     bordercolor="#666666"
     borderopacity="1.0"
     inkscape:pageopacity="1"
     inkscape:pageshadow="2"
     inkscape:zoom="0.49497475"
     inkscape:cx="785.86507"
     inkscape:cy="342.81112"
     inkscape:document-units="mm"
     inkscape:current-layer="g1692"
     showgrid="false"
     objecttolerance="1"
     guidetolerance="1"
     inkscape:window-width="1440"
     inkscape:window-height="855"
     inkscape:window-x="0"
     inkscape:window-y="1"
     inkscape:window-maximized="1"
     fit-margin-top="0"
     fit-margin-left="0"
     fit-margin-right="0"
     fit-margin-bottom="0" />
  <metadata
     id="metadata1564">
    <rdf:RDF>
      <cc:Work
         rdf:about="">
        <dc:format>image/svg+xml</dc:format>
        <dc:type
           rdf:resource="http://purl.org/dc/dcmitype/StillImage" />
        <dc:title></dc:title>
      </cc:Work>
    </rdf:RDF>
  </metadata>
  <g
     inkscape:label="Layer 1"
     inkscape:groupmode="layer"
     id="layer1"
     transform="translate(0.31931223,-0.449696)">
    <g
       id="g1692"
       transform="translate(-1.603617,-17.10525)">
      <path
         style="fill:#aac646;stroke-width:0.20941381"
         d="m 42.470961,261.19762 c -1.90043,-0.22196 -3.9265,-0.55184 -4.5024,-0.73273 -2.12342,-0.66715 -4.09722,-2.6333 -4.82038,-4.80178 -0.24833,-0.74458 -0.46443,-2.90804 -0.74053,-7.41238 -0.21436,-3.49853 -0.43836,-6.40945 -0.49765,-6.46875 -0.0593,-0.0593 -1.500349,-0.20249 -3.202311,-0.31857 -3.788042,-0.25789 -7.266593,0.0131 -10.109889,0.78357 -5.163432,1.40165 -6.304886,1.44832 -6.863058,0.28032 -0.644133,-1.3477 1.326995,-3.59466 4.675291,-5.32959 3.528224,-1.82818 7.777253,-2.91255 12.426734,-3.1714 l 2.639965,-0.14707 -0.07587,-2.30355 c -0.04185,-1.26698 -0.135871,-3.10391 -0.209409,-4.08209 l -0.133568,-1.77851 -1.989429,-0.0468 c -5.622389,-0.13258 -10.251126,-2.85915 -12.244241,-7.21268 -0.726082,-1.58595 -1.141892,-5.47247 -0.682669,-6.38059 0.167695,-0.33167 0.560955,-1.37996 0.873885,-2.32961 1.592235,-4.83182 5.809242,-8.59064 11.738903,-10.46347 0.586657,-0.18534 0.631606,-0.27372 0.678801,-1.33365 0.06525,-1.46857 -1.079753,-21.08147 -1.24026,-21.24198 -0.06695,-0.0669 -1.125031,-0.34858 -2.351074,-0.6256 -6.036771,-1.36406 -11.393912,-3.88599 -15.823495,-7.44901 -2.0455306,-1.64536 -4.1111686,-3.74958 -5.1598506,-5.25628 l -0.535325,-0.76913 0.232434,-3.94268 c 0.251066,-4.25859 0.755608,-6.85819 1.925811,-9.92265 1.669322,-4.37154 4.8488306,-7.90529 8.8339526,-9.81824 2.56777,-1.23258 3.802852,-1.50373 7.41836,-1.62855 l 3.193528,-0.11012 v -1.11076 c 0,-1.22337 -0.987187,-19.02285 -1.120519,-20.20332 -0.0496,-0.43927 -0.565147,-1.47691 -1.274391,-2.565 -0.655085,-1.00499 -1.471569,-2.44589 -1.8144,-3.20199 l -0.623341,-1.37471 -0.375523,0.46375 -0.375521,0.46373 -1.637217,-2.12583 c -1.583755,-2.05641 -1.664108,-2.12582 -2.46013,-2.12582 -1.528176,0 -5.867145,-1.99893 -7.2323156,-3.33187 -1.824495,-1.78143 -2.260349,-2.726106 -4.989912,-10.815446 -1.855676,-5.49948 -2.596562,-7.97428 -2.592711,-8.66046 0.01221,-2.17218 1.606227,-5.39443 3.57258,-7.221972 l 1.169742,-1.087127 0.131684,-2.712915 c 0.328697,-6.770237 1.790531,-11.242859 5.1416126,-15.731395 2.210279,-2.960544 5.439545,-5.602951 8.292262,-6.785341 1.115276,-0.46226 1.162185,-0.513127 1.162185,-1.260463 0,-0.428313 -0.289948,-5.71176 -0.644306,-11.740995 -0.354391,-6.029212 -0.599404,-11.49856 -0.544515,-12.15408 0.200345,-2.392455 1.697696,-4.573925 3.956391,-5.764002 l 1.106588,-0.583088 h 15.287191 15.28722 l 1.19669,0.587648 c 2.0323,0.99799 3.60759,3.18764 3.90729,5.431224 0.0808,0.605658 -0.10457,8.854807 -0.41239,18.331428 l -0.55952,17.230255 1.00334,2.471293 c 0.5518,1.359223 1.20339,3.14322 1.44799,3.964478 0.2447,0.821258 0.53554,1.549343 0.64661,1.617972 0.11109,0.06863 0.29747,0.303536 0.41448,0.521943 0.16489,0.30812 0.11941,0.483782 -0.20216,0.783627 -0.41069,0.382599 -0.40448,0.397784 0.61881,1.516741 0.56851,0.621643 1.34328,1.700858 1.72167,2.39827 l 0.68801,1.268023 0.10457,4.292976 0.10493,4.29299 1.39005,0.73295 c 0.76451,0.40311 2.03668,1.16677 2.82709,1.69701 0.79039,0.53023 1.9922,1.28412 2.67066,1.67531 1.4842,0.85572 2.75744,2.37094 2.94997,3.5106 0.18468,1.09346 -0.1893,3.01988 -0.84801,4.36851 -0.74281,1.52065 -3.21443,3.94183 -5.12615,5.02159 -2.09536,1.183456 -3.5387,1.527146 -6.41318,1.527146 -2.03108,0 -2.38376,0.0507 -2.55108,0.36647 -0.10687,0.20157 -0.26021,1.54443 -0.34121,2.98416 -0.14345,2.55585 -0.13224,2.65722 0.47071,4.29299 0.90502,2.45465 2.54373,5.65934 3.28129,6.41697 1.73659,1.7838 4.65908,1.66904 6.27068,-0.24636 0.68523,-0.81433 0.84887,-1.44264 0.6689,-2.56827 -0.27899,-1.74433 -1.6973,-3.43409 -3.52204,-4.19569 -1.46817,-0.61282 -0.69591,-1.37039 1.14518,-1.12348 0.47196,0.0633 1.53958,0.4519 2.37245,0.86354 0.83291,0.41163 1.61901,0.74845 1.74694,0.74845 0.14181,0 0.2325,-0.44382 0.2325,-1.13944 0,-1.95599 0.59519,-1.62374 1.49861,0.83649 0.36112,0.98346 0.46077,1.73046 0.47404,3.55252 0.0165,2.19381 -0.0165,2.37488 -0.66038,3.68348 -0.8265,1.67976 -2.51071,3.33732 -4.19118,4.12486 -1.02866,0.48204 -1.48,0.56455 -3.08939,0.56455 -1.73187,0 -2.00186,-0.0587 -3.32915,-0.72457 -2.00634,-1.0064 -3.78109,-2.84552 -4.94992,-5.12939 -0.50374,-0.9843 -0.97953,-1.78964 -1.05732,-1.78964 -0.0778,0 -0.20975,1.27432 -0.29318,2.8318 -0.16093,3.00412 -0.0993,3.27843 0.82548,3.67965 0.74001,0.32088 8.13041,5.45409 10.40052,7.22379 2.82178,2.19974 6.126,5.19245 8.32061,7.53613 1.5032,1.60533 1.93886,2.25273 3.08954,4.59124 0.80197,1.62977 1.56496,3.56284 1.90111,4.81652 0.50181,1.87134 0.56268,2.47286 0.57218,5.65417 0.01,3.24601 -0.0403,3.74973 -0.56697,5.71073 -1.27693,4.75482 -2.43382,6.57912 -7.13929,11.25822 -4.4565,4.43146 -7.36263,6.60115 -10.56596,7.88834 -0.72306,0.29053 -1.31031,0.61208 -1.30494,0.71444 0.006,0.10252 0.44518,0.77923 0.97746,1.50409 2.25877,3.0763 4.31587,7.99749 5.0402,12.05769 0.50649,2.83899 0.4562,8.79138 -0.0976,11.55284 -1.46447,7.30224 -5.06959,12.81949 -9.78054,14.96801 -0.69107,0.31528 -2.08402,0.84075 -3.09547,1.16791 -1.25216,0.40506 -1.82018,0.68779 -1.78002,0.88602 0.0329,0.16029 0.81286,0.56497 1.73428,0.89966 0.92142,0.33467 2.54274,1.03821 3.60297,1.56338 1.6452,0.81494 2.18684,1.2272 3.6965,2.81361 4.05238,4.25835 5.44661,6.91451 5.71373,10.88529 0.22525,3.3463 -0.86509,6.22773 -3.25125,8.59295 -2.50749,2.48547 -5.95715,3.86144 -10.31322,4.11358 l -2.22658,0.12895 -0.15434,4.73325 c -0.15829,4.85084 -0.36269,6.2245 -1.15942,7.78627 -1.02396,2.00704 -3.02987,3.42769 -5.12259,3.62787 -0.57587,0.0551 -2.60194,-0.0814 -4.5024,-0.30374 z m 25.12546,-127.00401 c -0.14576,-0.17545 -0.30801,-0.27603 -0.36072,-0.22326 -0.1451,0.1451 0.14973,0.54252 0.40294,0.54252 0.13883,0 0.12301,-0.12001 -0.0422,-0.31922 z m -4.91703,-4.63052 c -1.345,-1.24319 -2.37637,-1.95467 -1.78002,-1.22789 0.42262,0.51503 2.70664,2.41057 2.8903,2.3987 0.0805,-0.006 -0.41921,-0.53205 -1.11028,-1.17081 z M 20.323434,105.77075 c 0.107407,-2.45621 0.634856,-5.12997 2.571621,-13.036006 1.63657,-6.68074 2.919822,-9.51662 5.805544,-12.82967 2.637091,-3.02765 6.764032,-6.309534 9.705782,-7.718495 4.08331,-1.95569 11.63504,-3.324486 21.0102,-3.808255 1.83758,-0.0948 2.83814,-0.229468 2.89098,-0.388979 0.15632,-0.472529 -0.92825,-0.58482 -5.38705,-0.557694 -6.74434,0.04101 -11.42275,0.693577 -16.26015,2.268031 -8.78446,2.859147 -13.581877,7.648282 -17.096353,17.066772 -0.964688,2.58527 -1.218725,3.60275 -2.248329,9.00479 -0.471998,2.47632 -1.088113,5.476676 -1.36919,6.667456 -0.281076,1.19077 -0.511032,2.66093 -0.511032,3.26701 0,1.12912 0.332106,2.42096 0.622377,2.42096 0.0894,0 0.208919,-1.06017 0.26561,-2.35592 z m 38.976877,-1.33808 c 0.0732,-0.53435 0.13323,-1.62498 0.13323,-2.4236 0,-1.25593 -0.0481,-1.44274 -0.35729,-1.38322 -0.45273,0.0872 -0.64249,0.77055 -0.66886,2.40889 -0.035,2.17804 0.641,3.23646 0.89298,1.39793 z m -42.69194,0.1339 c 0.384377,-0.16522 0.37577,-0.18138 -0.104705,-0.19688 -0.287936,-0.01 -0.90048,-0.0639 -1.36119,-0.1213 l -0.837655,-0.10421 0.628242,0.30654 c 0.713596,0.34818 1.076531,0.37331 1.67531,0.11603 z m -4.081539,-1.62297 c 0.0021,-0.20157 0.327378,-0.77574 0.72501,-1.27592 0.397637,-0.50019 0.778162,-1.08334 0.845614,-1.29589 0.06747,-0.21254 0.438869,-0.490816 0.825341,-0.618356 1.590919,-0.52507 2.376071,-1.96401 1.168364,-2.14128 -1.086776,-0.15949 -1.835471,0.31531 -2.108757,1.33736 -0.302645,1.131726 -0.495681,1.368206 -1.252816,1.534496 -0.332173,0.073 -0.846724,0.32362 -1.143463,0.55702 -1.085373,0.85376 -1.498838,-0.006 -0.728719,-1.515916 0.234708,-0.46008 0.370516,-0.92752 0.301753,-1.03874 -0.06876,-0.11121 -0.531703,-0.20222 -1.028809,-0.20222 -1.9819546,0 -2.2010006,-0.13106 -2.9403146,-1.7591 -0.371355,-0.81774 -1.084305,-2.49757 -1.584342,-3.73295 -0.500038,-1.23537 -0.945064,-2.21022 -0.988957,-2.16634 -0.04387,0.0439 0.502322,1.80854 1.213785,3.92144 1.705338,5.06468 2.856361,6.874816 5.2283696,8.222436 1.111318,0.63139 1.465165,0.67331 1.467928,0.17396 z m 0.744946,-9.782116 c 0.185801,-0.28355 0.387521,-0.88622 0.448295,-1.33927 0.09603,-0.71608 0.04983,-0.84295 -0.35366,-0.97101 -0.531428,-0.16864 -2.131225,0.032 -2.844172,0.35696 -0.6546266,0.29825 -1.0733726,1.30992 -0.7189626,1.73695 0.3214096,0.38729 1.3123126,0.68792 2.3502096,0.71304 0.61015,0.0148 0.854201,-0.0936 1.11829,-0.49667 z m -8.8479206,-3.87771 c -0.161463,-1.36335 0.122878,-1.47237 2.167813,-0.83107 1.339493,0.42011 1.592171,0.44704 1.758508,0.18742 0.301655,-0.47074 0.612139,-1.70019 0.613415,-2.42895 0,-0.52966 0.143654,-0.74396 0.722895,-1.08575 0.8529446,-0.50324 2.3760316,-2.67455 2.0822036,-2.96838 -0.108299,-0.10831 -0.883707,-0.22279 -1.723077,-0.25442 l -1.5261676,-0.0575 -0.929105,0.98252 c -0.511033,0.54039 -0.929128,1.07446 -0.929128,1.18681 0,0.11229 0.41801,0.36392 0.928898,0.55903 1.520657,0.58075 1.530458,1.35521 0.01715,1.35521 -0.722016,0 -1.115632,0.1539 -1.874191,0.73294 -1.114269,0.85053 -1.190351,0.86572 -1.67219,0.33328 -0.827519,-0.91441 -0.779647,-6.33387 0.07348,-8.31699 0.470681,-1.09411 1.975317,-2.71547 3.469233,-3.738368 l 0.837654,-0.573567 -0.729511,0.13171 c -1.031028,0.186168 -2.154054,0.989615 -3.171007,2.268615 -1.588175,1.99738 -2.676939,5.00124 -2.3722,6.5447 0.157143,0.79594 2.197424,7.01536 2.301375,7.01536 0.04261,0 0.02177,-0.46919 -0.04604,-1.04265 z m 44.7620636,-4.19304 c 1.0666,-0.29631 2.37419,-1.49912 3.00431,-2.76365 0.68493,-1.37449 0.74815,-3.56774 0.14148,-4.90393 -1.33356,-2.936545 -5.36554,-2.725917 -6.94119,0.36262 -0.60051,1.17716 -0.49818,1.35618 0.34973,0.61172 1.49429,-1.31202 2.62888,-1.40085 3.84613,-0.30116 1.41751,1.28063 1.5274,3.19547 0.2602,4.53545 -1.13882,1.20431 -2.75783,1.13263 -4.11154,-0.18204 -0.42694,-0.41467 -0.82667,-0.7035 -0.88831,-0.64186 -0.25097,0.25093 0.21865,1.47641 0.834,2.17746 1.04868,1.19439 2.04915,1.5099 3.50522,1.10539 z m -33.381074,-7.88552 c -0.297927,-0.57056 -1.028073,-1.31972 -1.917075,-1.966989 -0.229366,-0.167014 0.0063,0.198559 0.523534,0.812369 0.517315,0.61382 1.071549,1.29956 1.231624,1.52387 0.417969,0.58572 0.528708,0.33319 0.161925,-0.36925 z m 20.920784,-6.614643 c 0.91014,-0.442194 0.9605,-0.510256 0.85566,-1.156335 -0.2292,-1.413146 -5.17212,-12.982385 -7.216797,-16.891785 -0.998222,-1.908636 -2.717791,-3.757866 -3.922067,-4.217758 -1.05393,-0.402516 -2.477749,-0.311681 -2.979524,0.190121 -0.277218,0.277185 -0.220825,0.391687 0.497712,1.010776 2.041316,1.758806 2.443226,2.296075 4.516752,6.038218 2.570741,4.639397 3.800714,7.337425 5.171824,11.344911 1.59428,4.659667 1.44114,4.47637 3.07644,3.681864 z"
         id="path1700"
         inkscape:connector-curvature="0" />
      <path
         style="fill:#744520;stroke-width:0.20941381"
         d="m 42.272601,260.9878 c -1.89436,-0.22096 -3.87331,-0.54678 -4.3977,-0.72411 -1.97202,-0.66692 -3.78758,-2.48563 -4.54253,-4.55035 -0.22524,-0.61581 -0.45009,-2.90112 -0.72589,-7.37512 -0.21997,-3.56554 -0.48304,-6.56617 -0.58491,-6.66804 -0.10192,-0.10192 -1.632568,-0.27602 -3.401505,-0.38713 -4.318502,-0.27108 -7.126847,0 -11.174041,1.07618 -3.614275,0.9616 -4.716209,1.04434 -5.358209,0.40235 -1.192003,-1.19201 1.014192,-3.72789 4.962586,-5.70423 3.162419,-1.58291 7.296623,-2.58233 11.548129,-2.79164 1.61153,-0.0795 2.856866,-0.23415 2.968892,-0.36916 0.248658,-0.29945 -0.170162,-7.87887 -0.454943,-8.23495 -0.132904,-0.16588 -0.483818,-0.21732 -0.969034,-0.14148 -1.128528,0.17645 -4.099071,-0.25855 -5.931742,-0.86845 -3.083013,-1.02629 -5.687722,-3.20384 -6.994088,-5.84706 -0.629855,-1.27446 -0.772863,-1.83925 -0.950151,-3.7526 -0.189693,-2.04734 -0.170698,-2.35088 0.208621,-3.33489 0.229498,-0.5954 0.628618,-1.68442 0.886929,-2.42003 1.016663,-2.89535 3.706918,-6.03591 6.635803,-7.74647 1.445809,-0.84438 4.420772,-2.11967 4.944768,-2.11967 0.826572,0 0.832446,-0.25425 0.250307,-10.84139 -0.308679,-5.61255 -0.628209,-10.62536 -0.710359,-11.13953 l -0.149392,-0.93484 -3.035873,-0.77061 C 19.265973,174.21341 15.152858,172.3181 10.855601,169.0895 9.0740144,167.75097 6.0111914,164.74125 5.1170134,163.4504 l -0.601727,-0.86865 0.249813,-4.08001 c 0.273293,-4.46375 0.833989,-7.186 2.112693,-10.25762 1.659183,-3.98548 4.6054036,-7.19951 8.2645556,-9.01571 2.659827,-1.32019 4.783262,-1.78067 8.219492,-1.78249 l 2.77471,-0.002 -0.0099,-1.41356 c -0.0066,-0.77744 -0.271084,-5.79552 -0.5888,-11.15127 l -0.577411,-9.73775 -1.20591,-1.83466 c -0.663235,-1.00904 -1.525099,-2.52553 -1.915236,-3.36991 -0.390139,-0.84438 -0.854722,-1.65596 -1.03241,-1.80341 -0.240776,-0.19984 -0.323025,-0.68559 -0.323025,-1.90744 0,-1.91485 0.03878,-2.12895 1.704084,-9.408296 2.704139,-11.82044 3.547978,-13.68827 8.327297,-18.43267 2.598382,-2.57936 5.600932,-4.902224 7.664082,-5.929177 3.89948,-1.940927 12.06237,-3.433147 20.88904,-3.818592 2.37614,-0.103728 3.08883,-0.07551 3.08883,0.122422 0,0.141504 0.55147,0.846817 1.22546,1.567327 2.09463,2.239156 2.21236,2.62641 2.33458,7.67905 0.0576,2.38071 0.1517,4.37206 0.20942,4.42522 0.0576,0.0532 0.71725,0.40163 1.46589,0.77439 0.74868,0.37275 1.92661,1.07506 2.61768,1.5607 0.69106,0.4856 1.76722,1.1577 2.3915,1.49353 1.55916,0.83884 2.88176,2.20767 3.18104,3.29224 0.30308,1.09769 -0.0264,3.31683 -0.68272,4.60613 -0.65238,1.28085 -3.21238,3.83025 -4.78512,4.76533 -2.06535,1.227926 -2.95096,1.468406 -6.17771,1.677396 -2.20233,0.14264 -2.98928,0.26826 -3.16284,0.50487 -0.12697,0.17322 -0.2978,1.51529 -0.37925,2.98231 -0.0814,1.46704 -0.18996,2.70907 -0.24108,2.76009 -0.0511,0.0511 -0.32681,-0.1273 -0.61287,-0.39587 -0.37213,-0.34961 -0.45942,-0.56169 -0.3067,-0.74551 0.11736,-0.14148 0.27174,-1.34857 0.34324,-2.68276 0.11483,-2.14398 0.0894,-2.44132 -0.21864,-2.55952 -0.53122,-0.20384 -0.9364,0.26938 -1.08625,1.26865 -0.13357,0.89072 -0.15203,0.9079 -1.42379,1.32055 -2.23499,0.72522 -2.46369,0.73401 -4.17221,0.16047 -2.73468,-0.91798 -4.75989,-0.62256 -4.75989,0.69436 0,0.65939 0.90866,2.16454 1.82384,3.02109 0.54445,0.50958 0.90071,0.61736 2.80559,0.8487 2.58528,0.31396 3.56158,0.78021 4.66564,2.22796 0.76728,1.00611 0.9045,1.43546 0.5737,1.79487 -0.23383,0.25393 -0.4961,6.19264 -0.28758,6.51006 0.0861,0.13092 0.46282,0.41366 0.83729,0.62824 1.99137,1.14116 8.51546,5.73672 11.25575,7.92861 4.40102,3.52023 8.7496,7.90783 9.85914,9.94759 1.13772,2.09153 2.04301,4.32398 2.63261,6.49182 0.41596,1.52952 0.48461,2.281 0.48798,5.34006 0.004,3.23935 -0.0495,3.76463 -0.58818,5.83166 -0.75217,2.88585 -1.15078,3.80302 -2.59834,5.97855 -1.30157,1.95615 -6.31052,7.1205 -8.90892,9.18539 -2.09085,1.66152 -4.37161,3.06327 -5.91023,3.63242 -1.93409,0.71543 -1.93452,0.71705 -0.66431,2.40556 3.12617,4.15556 5.15943,10.00677 5.48742,15.79154 0.44403,7.83132 -1.84827,15.23487 -6.0887,19.66448 -1.91024,1.9955 -3.28888,2.82992 -6.47434,3.91865 -3.21584,1.09914 -3.38568,1.5052 -0.95074,2.27321 0.63349,0.19984 2.20076,0.87277 3.48284,1.49548 2.01116,0.97682 2.52865,1.34028 3.77092,2.64857 4.25365,4.47961 5.61596,7.06555 5.87361,11.14942 0.43889,6.95554 -4.9386,11.92798 -13.44149,12.42906 l -2.30355,0.13587 -0.1484,4.5024 c -0.0814,2.47629 -0.25394,5.0627 -0.38318,5.74757 -0.62626,3.31965 -2.98262,5.67195 -5.88357,5.87345 -0.61816,0.0428 -2.67383,-0.10253 -4.56819,-0.32353 z m 15.27615,-17.66404 c 7.41886,-1.21707 11.13062,-6.06858 9.73151,-12.71969 -0.54682,-2.59954 -1.49189,-4.24699 -3.59404,-6.26526 -2.95843,-2.84035 -3.48345,-3.19075 -6.50297,-4.33979 -1.66083,-0.63203 -2.82537,-0.97211 -2.90231,-0.84754 -0.15698,0.25425 -0.38436,3.17451 -0.80376,10.33049 -0.32054,5.46914 -0.2968,5.96991 0.36667,7.7753 0.46489,1.26479 0.63581,3.0106 0.36427,3.72024 -0.12763,0.3333 -0.51182,0.95941 -0.85392,1.39133 -0.34208,0.43191 -0.62196,0.83551 -0.62196,0.89684 0,0.39816 2.55583,0.42899 4.81651,0.058 z m 6.60461,-7.16241 c -0.18467,-0.18468 -0.53147,-0.72665 -0.77047,-1.20411 -0.91331,-1.82484 -2.05126,-2.65834 -4.72078,-3.45781 -1.6895,-0.50589 -3.20875,-1.54257 -3.50806,-2.39368 -0.39696,-1.12879 1.3169,-2.52167 3.42719,-2.7853 1.30322,-0.16291 3.4645,0.17545 4.75204,0.7438 3.59316,1.5861 4.99289,6.24386 2.59654,8.64019 -0.86701,0.86699 -1.2642,0.96916 -1.77646,0.45691 z m -13.75742,5.06992 c 0.26482,-1.35868 0.2536,-1.51908 -0.18666,-2.72237 -0.25724,-0.70324 -0.51048,-1.74982 -0.56243,-2.32569 -0.0517,-0.5759 -0.16126,-1.11794 -0.24304,-1.20451 -0.23679,-0.25063 -5.74154,0.2846 -6.07258,0.59065 -0.17413,0.16093 -0.35294,0.96796 -0.44422,2.00635 -0.14939,1.69915 -0.17149,1.7536 -1.01735,2.50419 -0.47552,0.42203 -0.86463,0.8184 -0.86463,0.88087 0,0.11048 1.9055,0.57191 5.75888,1.39488 1.03661,0.22129 2.21458,0.38381 2.61767,0.36095 0.73284,-0.0415 0.73301,-0.0419 1.01432,-1.48532 z m -33.15933,-0.22622 c 1.266954,-0.37867 2.86897,-0.80953 3.560035,-0.95741 2.323069,-0.49718 10.502701,-0.32155 15.468565,0.33219 1.36667,0.18007 2.53207,0.27999 2.58971,0.22228 0.18204,-0.18204 -0.95625,-3.42964 -1.50893,-4.30516 -0.2912,-0.46126 -0.74143,-0.89144 -1.00051,-0.95591 -0.25921,-0.0643 -1.50652,-0.0897 -2.77211,-0.0565 -1.85635,0.0491 -2.308954,0.12169 -2.341966,0.37506 -0.269439,2.07063 -0.551892,2.51343 -1.601966,2.51218 -0.931248,-0.002 -1.996355,-0.71274 -2.356382,-1.57439 -0.302083,-0.72294 -0.314286,-0.72838 -1.63145,-0.72838 -2.139796,0 -3.274358,0.54422 -3.274358,1.57061 0,1.23373 -1.353188,1.68223 -2.574619,0.85335 -0.437024,-0.29648 -1.036366,-0.53922 -1.331871,-0.53922 -0.820753,0 -2.924419,1.2171 -4.218076,2.44043 -1.00598,0.95127 -1.122979,1.14122 -0.881965,1.4316 0.329911,0.39753 0.628574,0.34967 3.875893,-0.62092 z m 17.48604,-19.06372 c 7.34936,-3.66566 12.74779,-5.9527 19.29037,-8.17232 2.57813,-0.87465 5.1311,-1.8742 5.67327,-2.22123 0.54213,-0.34704 1.53162,-1.22031 2.19885,-1.94057 6.00694,-6.48463 7.21174,-19.7463 2.62723,-28.91856 -0.6914,-1.38331 -2.56903,-4.24433 -3.2784,-4.99545 l -0.56449,-0.59774 -2.10677,0.15071 c -1.1587,0.0827 -2.3389,0.21304 -2.62266,0.28889 l -0.51595,0.13785 -0.0369,4.17958 c -0.0359,4.03485 -0.023,4.18154 0.38169,4.23754 2.52899,0.3502 3.55914,0.91894 4.30208,2.37521 0.38698,0.75854 1.24739,4.0164 1.24739,4.72306 0,0.57887 -1.36337,1.751 -2.03669,1.751 -0.69777,0 -1.42244,-0.66072 -1.62635,-1.48281 -0.0943,-0.38006 -0.53394,-0.77442 -1.48119,-1.32855 -0.74099,-0.43344 -1.39998,-0.87347 -1.46448,-0.97778 -0.29219,-0.47282 -0.71336,-0.0765 -1.41211,1.32851 -0.92577,1.8616 -2.26763,3.41648 -4.03983,4.68108 l -1.34339,0.95861 0.42734,0.60008 c 0.94134,1.32201 1.91288,4.39033 1.9176,6.05618 0.004,1.08012 -1.01663,1.93703 -2.20224,1.85075 -0.81486,-0.0593 -0.91017,-0.13389 -1.4065,-1.10075 -0.43209,-0.84174 -0.81055,-1.20583 -2.00863,-1.93228 -0.81193,-0.49233 -1.92733,-1.37739 -2.47867,-1.96684 -0.8173,-0.87373 -1.10382,-1.05446 -1.5514,-0.9784 -1.05631,0.1794 -7.46107,1.87997 -7.61656,2.0223 -0.0864,0.0791 0.2193,0.56305 0.67899,1.07566 0.45976,0.51256 1.31423,1.68586 1.89878,2.60729 0.92577,1.45916 1.04954,1.7808 0.9595,2.49341 -0.12598,0.99674 -0.99971,1.94221 -1.97463,2.13661 -0.62105,0.12401 -0.77472,0.0452 -1.57059,-0.80339 -0.83232,-0.88751 -0.98867,-0.96093 -2.766902,-1.29958 -2.751271,-0.52393 -4.572841,-1.46284 -5.276105,-2.71951 -0.335732,-0.59992 -1.016746,-0.23679 -2.668058,1.42196 -0.948852,0.95321 -1.768685,2.03383 -2.268014,2.98938 -0.430113,0.82311 -0.782034,1.56724 -0.782034,1.6537 0,0.0864 0.683214,0.1 1.518251,0.0297 1.921851,-0.16061 2.823693,0.20908 4.174788,1.71182 1.124305,1.25051 2.892911,4.12544 2.892911,4.70254 0,0.7029 -0.670157,1.82922 -1.274324,2.14166 -0.971548,0.5024 -1.52167,0.37893 -2.362946,-0.53037 -0.425028,-0.45935 -0.982026,-0.88369 -1.23776,-0.94298 -0.25575,-0.0593 -1.124659,-0.24702 -1.930902,-0.41714 -0.806243,-0.17018 -1.677929,-0.36933 -1.937077,-0.44262 -0.625102,-0.17676 -0.611575,0.17974 0.05777,1.52309 0.755819,1.51671 2.709459,3.29743 4.546879,4.14445 2.14813,0.99022 4.218821,1.34255 6.965436,1.18528 1.293397,-0.0742 1.773987,-0.23745 4.083577,-1.38959 z m 13.57044,-47.93621 c 4.46041,-0.75663 8.05273,-1.71208 9.74862,-2.5929 1.43065,-0.74308 4.83318,-3.64958 7.64516,-6.53065 1.98442,-2.03316 3.87794,-4.6662 5.04773,-7.01901 2.94957,-5.93273 2.87243,-11.77425 -0.22723,-17.19147 -1.52159,-2.65948 -7.2836,-8.67118 -9.81754,-10.243 -0.5183,-0.32155 -1.602,-1.09855 -2.40827,-1.72676 -0.80622,-0.62821 -3.68043,-2.56152 -6.38712,-4.29625 -9.54973,-6.12056 -12.73786,-8.81853 -16.82654,-14.23962 -2.48566,-3.29564 -5.263802,-8.58867 -7.995057,-15.232336 -1.675508,-4.07561 -1.208466,-4.6417 1.042815,-1.26394 1.649591,2.47498 3.054571,3.9653 5.468042,5.80007 6.1253,4.656626 14.65049,9.343966 18.80708,10.340506 1.73948,0.41705 3.90136,0.54906 3.90136,0.2381 0,-0.23382 -0.82602,-0.97104 -1.44878,-1.29302 -0.27868,-0.14411 -1.55072,-0.43582 -2.82709,-0.64849 -3.10204,-0.51687 -5.72316,-1.77279 -7.56821,-3.62635 -1.55415,-1.56128 -2.6217,-3.27939 -7.10873,-11.440796 -1.92846,-3.50761 -3.63846,-6.56594 -3.80002,-6.79629 -0.21502,-0.30634 -0.53125,-0.41883 -1.17823,-0.41883 -0.865918,0 -0.883817,-0.0145 -0.853085,-0.68537 0.06791,-1.48262 1.387575,-2.55849 3.139795,-2.55976 1.26498,0 1.52133,0.32929 0.88429,1.13915 l -0.42351,0.53842 0.6216,0.78379 c 0.34189,0.43108 1.88061,2.00928 3.41935,3.50712 4.02774,3.92056 6.75685,5.87748 10.9649,7.86237 3.51502,1.65798 4.86734,2.06154 7.38447,2.20365 2.11329,0.11929 2.37277,0.088 4.31227,-0.51878 1.13506,-0.35518 2.1481,-0.5936 2.25122,-0.52986 0.33994,0.2101 0.19589,0.68249 -0.33605,1.1008 -1.14235,0.8986 -0.4311,1.08924 2.09414,0.56138 4.41662,-0.9232 8.81671,-5.11929 8.78528,-8.378 -0.0198,-1.92985 -0.57689,-2.56526 -3.84151,-4.37201 -1.5673,-0.8674 -3.46215,-1.86071 -4.21083,-2.20735 -1.93191,-0.89451 -4.62798,-1.30901 -8.01049,-1.2315 -2.35467,0.0539 -2.77432,0.0162 -2.77432,-0.25054 0,-0.17278 0.37694,-0.50115 0.83766,-0.72973 0.7025,-0.34852 1.37066,-0.42813 4.14035,-0.49321 3.923,-0.0922 3.73179,0.055 3.87825,-2.98638 0.17577,-3.649676 -0.54418,-6.02275 -2.3858,-7.864376 -1.21886,-1.218849 -2.41789,-1.769547 -3.30129,-1.516198 -0.35939,0.103125 -1.47503,0.187422 -2.47919,0.187422 -3.08472,0 -10.47993,1.080529 -13.7441,2.008193 -0.91824,0.26096 -1.08995,0.380983 -0.96282,0.672952 0.4528,1.039714 0.19523,3.499137 -0.42012,4.009757 -0.18929,0.15717 -1.02305,0.028 -2.9269,-0.45331 l -2.66207,-0.673069 -0.96323,0.510999 c -1.18733,0.62986 -5.154546,4.39958 -6.465679,6.14377 -1.628217,2.16598 -2.549605,4.24386 -4.239109,9.55975 -0.849426,2.67267 -1.123969,3.79484 -2.108128,8.61689 l -0.839769,4.114476 0.743314,2.21977 c 0.408838,1.22087 0.911075,2.42693 1.116089,2.6801 l 0.372756,0.46038 1.336523,-0.60211 c 2.473441,-1.11428 4.305202,-0.86609 5.383567,0.72948 0.441519,0.65324 0.485543,0.91031 0.40478,2.36452 -0.07816,1.4106 -0.21304,1.87296 -0.993809,3.41296 l -0.903217,1.78131 0.712039,0.74205 c 1.413827,1.47338 7.446293,6.14871 7.933623,6.14871 0.0877,0 0.76018,-0.4836 1.49472,-1.0746 1.68341,-1.35453 2.38114,-1.64893 3.89413,-1.6432 3.00184,0.01 5.52675,2.60317 4.87911,5.00829 -0.12201,0.45356 -0.16522,1.18387 -0.096,1.62296 0.11085,0.70101 0.0475,0.87336 -0.51899,1.41342 -0.35481,0.3383 -0.64512,0.72015 -0.64512,0.84856 0,0.1283 0.8246,0.76525 1.83238,1.41512 1.0078,0.64984 2.47297,1.75221 3.25591,2.44968 0.78297,0.69746 1.46271,1.26812 1.51052,1.26812 0.0478,0 0.56189,-0.18731 1.14238,-0.41602 0.9792,-0.38595 1.13924,-0.39416 2.21636,-0.11349 0.88059,0.2292 1.42998,0.25261 2.27499,0.0962 1.66192,-0.30735 2.15501,-0.0504 2.31994,1.20781 0.0725,0.55299 0.22029,1.22188 0.32847,1.48644 0.67344,1.64639 -0.85544,3.73351 -3.55361,4.85112 -0.56483,0.23382 -0.62656,0.38074 -0.95727,2.27548 -0.66403,3.80424 -0.3034,3.26056 -4.372,6.59057 -0.89098,0.72926 -0.97223,0.87333 -0.97223,1.72471 0,0.84188 -0.0736,0.97745 -0.7853,1.44631 -1.30235,0.858 -4.54463,1.81992 -6.54419,1.94148 -1.75218,0.1065 -1.79011,0.0985 -2.42627,-0.51309 -0.63362,-0.60917 -0.70105,-0.62379 -3.45532,-0.74837 -1.5658,-0.0709 -4.33837,-0.39462 -6.26441,-0.73153 -2.99518,-0.52397 -3.68984,-0.72287 -5.216384,-1.49367 -3.429647,-1.73174 -4.022269,-2.38742 -2.751734,-3.04441 0.845907,-0.43747 1.866227,-0.39941 2.685514,0.0999 0.377109,0.22986 0.777601,0.41807 0.889991,0.41807 0.309339,0 0.267786,-5.38084 -0.0432,-5.57304 -0.136202,-0.0841 -0.76807,-0.19161 -1.404194,-0.23877 -1.370598,-0.10155 -1.915974,-0.35841 -3.33892,-1.57302 -0.632199,-0.53966 -1.531778,-1.05705 -2.208811,-1.27046 -1.337192,-0.42153 -4.145199,-0.67741 -5.220247,-0.47574 -2.215724,0.41565 -5.5501986,4.42017 -7.4287456,8.92149 -0.707838,1.69605 -1.143336,4.56169 -1.16164,7.6436 -0.02539,4.275 0.694522,6.29831 3.183383,8.94672 2.0769466,2.21005 4.9572246,3.90765 9.1557396,5.39621 2.015148,0.71449 7.080186,1.98986 8.775679,2.20974 2.214108,0.28724 7.947789,0.47415 12.564829,0.40991 4.00696,-0.0557 5.35515,-0.15829 8.02098,-0.61059 z m 9.74685,-78.537576 c -1.19449,-0.51968 -1.16884,-1.82548 0.0458,-2.33299 2.41509,-1.00909 4.82919,1.20315 2.51254,2.30245 -0.85305,0.40481 -1.67554,0.41463 -2.55834,0.0306 z m 9.39397,-2.93835 c -0.80547,-0.67774 -0.8363,-1.00925 -0.15698,-1.6886 0.41909,-0.41906 0.72332,-0.51401 1.64711,-0.51401 2.81997,0 3.08175,2.44367 0.28659,2.67545 -0.96806,0.0803 -1.18944,0.0215 -1.77676,-0.47284 z m -17.10993,-5.45062 c -0.46072,-0.15391 -1.26816,-0.28708 -1.79437,-0.29592 -0.52617,-0.008 -1.4345,-0.15799 -2.01848,-0.33141 -2.5726,-0.76399 -3.81417,-3.99639 -2.97509,-7.74574 0.19885,-0.88921 0.20314,-1.22532 0.0165,-1.41144 -0.55362,-0.55363 -0.26944,-1.12762 0.85513,-1.72731 0.60467,-0.322438 1.61773,-0.893954 2.25118,-1.270015 2.38841,-1.417922 4.06818,-1.438089 5.55593,-0.0667 1.32557,1.221885 1.86886,2.609955 1.87404,4.788205 0.004,1.56777 -0.0996,2.06716 -0.86595,4.18827 -0.47862,1.32455 -0.94978,2.78521 -1.04707,3.24592 -0.20315,0.96133 -0.52403,1.06986 -1.8522,0.62614 z m -1.12606,-1.78157 c 1.07909,-0.29973 2.66862,-1.77991 3.24835,-3.02488 0.63016,-1.3532 0.67551,-3.57793 0.0983,-4.82449 -1.51314,-3.268348 -5.62438,-3.061231 -7.37977,0.3718 -0.5118,1.00093 -0.73743,3.70109 -0.40989,4.90491 0.26482,0.97331 1.23554,2.06744 2.21131,2.49254 0.77473,0.33751 1.24432,0.35437 2.23166,0.0801 z m -2.22846,-2.17291 c -0.94051,-0.40981 -1.98554,-1.6964 -1.98554,-2.44455 0,-1.59144 1.18885,-2.8908 2.81229,-3.07378 0.77364,-0.0872 0.98734,-0.0142 1.64338,0.56188 0.41477,0.36417 0.85948,0.98135 0.98824,1.37156 0.49761,1.50771 -0.38259,3.25386 -1.84496,3.66002 -0.93161,0.25871 -0.83706,0.26314 -1.61341,-0.0752 z m 20.16348,85.856946 c 1.23624,-0.62271 2.90735,-1.5994 3.71358,-2.17039 1.87177,-1.32567 4.63042,-3.87952 4.30703,-3.9873 -0.13619,-0.0455 -1.61623,0.22557 -3.28928,0.60239 l -3.04187,0.68486 -1.01026,1.48307 c -0.55566,0.8157 -1.53604,2.09559 -2.1786,2.84428 -1.78836,2.08359 -1.65487,2.13193 1.4994,0.54309 z m 6.28288,-6.93529 c 3.15513,-0.70683 3.32407,-0.77097 3.99852,-1.51827 0.91298,-1.01148 2.54169,-3.42228 2.54169,-3.76212 0,-0.3782 -0.1527,-0.3545 -3.75801,0.58325 -4.35234,1.13213 -4.57917,1.21177 -4.72065,1.65757 -0.0673,0.21172 -0.58095,1.14818 -1.14168,2.08121 -0.87743,1.4599 -0.96344,1.69638 -0.61687,1.69638 0.22162,0 1.88512,-0.33212 3.697,-0.73802 z m 3.60842,-5.92747 3.66473,-0.97811 0.40508,-1.15177 c 0.4954,-1.40859 0.75577,-6.91066 0.32714,-6.91066 -0.35811,0 -6.98294,2.11082 -7.1723,2.28528 -0.0867,0.0798 -0.25459,0.91704 -0.37279,1.86022 -0.18368,1.46517 -0.87891,4.29342 -1.36172,5.53987 -0.21139,0.54602 0.3479,0.46602 4.50995,-0.64483 z m 0.94997,-9.08055 c 1.88849,-0.59789 3.4772,-1.20065 3.53046,-1.33948 0.3156,-0.82259 -1.84427,-7.30142 -2.52066,-7.561 -0.34805,-0.13356 -6.57325,2.43106 -6.69948,2.76001 -0.0515,0.13389 0.18665,0.94329 0.52867,1.79849 0.34218,0.85516 0.7312,2.21454 0.8645,3.0208 0.37989,2.29751 0.40946,2.40826 0.64282,2.40826 0.12103,0 1.76521,-0.48921 3.65369,-1.08708 z m -2.92219,-8.5702 c 1.71822,-0.70438 3.15618,-1.3098 3.19549,-1.34539 0.0392,-0.0356 0.006,-0.27208 -0.0749,-0.52564 -0.15599,-0.49102 -4.8492,-5.43421 -5.15956,-5.43421 -0.28527,0 -5.90946,2.34968 -6.14545,2.56741 -0.13488,0.12433 0.21007,0.57821 0.96729,1.2735 0.64721,0.59418 1.7133,1.90488 2.36915,2.91267 0.65581,1.00778 1.31201,1.83238 1.45817,1.83238 0.1461,0 1.67159,-0.57632 3.38974,-1.28072 z m -6.12996,-6.75271 c 1.47547,-0.61723 2.77943,-1.21903 2.89777,-1.33735 0.14741,-0.14709 -0.0336,-0.40433 -0.57334,-0.81461 -0.4337,-0.32978 -1.26648,-1.02938 -1.85069,-1.55493 -1.5156,-1.36335 -2.95899,-2.49955 -3.17794,-2.5016 -0.36063,-0.004 -6.15218,2.20182 -6.15416,2.34323 -0.002,0.2114 3.03831,2.82494 3.97533,3.41644 0.44521,0.28098 0.98108,0.74667 1.19078,1.03471 0.20975,0.28823 0.52275,0.52656 0.6955,0.53 0.1728,0.004 1.52132,-0.4987 2.99675,-1.11589 z m -6.87091,-5.78851 c 1.49732,-0.59041 2.80628,-1.15603 2.9088,-1.25687 0.21667,-0.21304 -6.04216,-4.40241 -6.5522,-4.38566 -0.69227,0.023 -5.95884,1.78137 -6.03703,2.01588 -0.0827,0.248 1.6709,1.50049 3.17244,2.26608 0.45181,0.23053 1.1031,0.70153 1.44733,1.04708 0.86457,0.86782 1.87803,1.56714 2.12887,1.469 0.11506,-0.0452 1.43449,-0.56509 2.93179,-1.15551 z m -7.97349,-5.40894 c 1.37346,-0.42803 2.53173,-0.88182 2.57394,-1.00843 0.0673,-0.20182 -7.49774,-5.25806 -8.31706,-5.55872 -0.1728,-0.0633 -1.5863,0.0567 -3.1412,0.26679 -1.55488,0.21007 -2.94486,0.38644 -3.08884,0.39182 -0.66023,0.023 -0.0867,0.66076 1.99075,2.20861 3.86796,2.88172 6.37776,4.50322 6.95013,4.49026 0.29417,-0.006 1.65882,-0.36233 3.03228,-0.79033 z m -10.36704,-7.12063 c 1.43045,-0.19391 2.6275,-0.44584 2.66011,-0.56001 0.0329,-0.1141 -0.80022,-0.81184 -1.85075,-1.55039 -2.97582,-2.09209 -5.67439,-4.33536 -8.75027,-7.27398 -1.55487,-1.48552 -3.28795,-3.09935 -3.85127,-3.58626 -1.157248,-1.000316 -1.703701,-1.153466 -1.477598,-0.41414 0.196877,0.64374 2.185158,4.01789 3.540878,6.00889 2.46584,3.62132 6.10004,7.7747 6.7762,7.74419 0.19358,-0.01 1.52223,-0.17445 2.9527,-0.3683 z m -23.542216,-4.43232 c -0.07116,-0.11507 -0.02968,-0.20941 0.09234,-0.20941 0.121955,0 0.221781,0.0943 0.221781,0.20941 0,0.11506 -0.04155,0.20942 -0.09234,0.20942 -0.05079,0 -0.15058,-0.0943 -0.22178,-0.20942 z m -1.583231,-1.93719 c -0.473025,-0.6047 -1.040618,-1.31216 -1.261364,-1.57219 -0.497273,-0.58583 -0.496811,-0.60519 0.01748,-0.73967 0.792715,-0.20744 0.431935,-0.56748 -0.575888,-0.57493 -1.029456,-0.007 -3.362662,-0.44182 -3.78859,-0.70507 -0.413171,-0.25536 -0.27115,-0.77984 0.453363,-1.67427 0.382808,-0.47258 0.75414,-1.01725 0.825216,-1.21039 0.07106,-0.19315 0.550923,-0.53771 1.066355,-0.765716 1.643123,-0.72684 2.114261,-2.09012 0.814201,-2.35602 -1.10585,-0.22616 -1.981474,0.34437 -2.335109,1.52152 -0.258553,0.86064 -0.412065,1.03277 -1.256483,1.408876 -0.529065,0.23566 -1.124262,0.54623 -1.322658,0.69019 -0.259542,0.18833 -0.424504,0.19793 -0.588139,0.0343 -0.16364,-0.16364 -0.06351,-0.56165 0.356884,-1.418836 0.690185,-1.40725 0.572368,-1.58016 -1.0833416,-1.59011 -1.716627,-0.01 -1.949139,-0.23451 -3.15775,-3.04441 -1.377543,-3.20269 -2.39113,-6.13717 -2.248349,-6.50928 0.15091,-0.39323 0.621223,-0.36351 2.055478,0.12994 0.669539,0.23036 1.341528,0.41883 1.493311,0.41883 0.388379,0 0.847097,-0.97516 1.028848,-2.18716 0.129771,-0.8654 0.325499,-1.19937 1.2256776,-2.09138 0.589185,-0.58384 1.258933,-1.41846 1.488326,-1.85472 0.363773,-0.69187 0.377007,-0.81858 0.103426,-0.99152 -0.304359,-0.1924 -1.572134,-0.31244 -2.8005356,-0.26514 -0.674437,0.026 -2.643764,1.78868 -2.643764,2.36639 0,0.19493 0.32464,0.44724 0.785301,0.61035 1.487888,0.52689 1.661156,1.06255 0.343713,1.06255 -0.833612,0 -1.681029,0.38434 -2.261376,1.02562 -0.851433,0.94081 -1.311893,0.4351 -1.588214,-1.74431 -0.287012,-2.26362 0.02968,-5.09129 0.730874,-6.52428 1.480325,-3.02568 5.523917,-5.054392 7.7643936,-3.895475 0.908351,0.469862 2.614424,2.154595 3.623947,3.578605 0.452878,0.63882 0.651822,0.79939 0.648616,0.52354 -0.0089,-0.76489 -0.777552,-2.08027 -1.722971,-2.94834 -1.878798,-1.724983 -3.61997,-2.199079 -6.1290836,-1.668838 -0.804231,0.169969 -1.627165,0.374349 -1.828726,0.454195 -0.330263,0.13083 -0.366474,-0.01749 -0.366474,-1.501471 0,-2.055136 0.524082,-6.61742 0.955702,-8.319664 0.960183,-3.786786 3.0847276,-7.700936 5.8376616,-10.755051 1.381544,-1.532678 4.012807,-3.461798 6.099406,-4.471756 1.595044,-0.772048 1.766196,-0.912062 1.766196,-1.44483 0,-0.324476 -0.289914,-5.522955 -0.644239,-11.552189 -0.354351,-6.029211 -0.60483,-11.62188 -0.556646,-12.428123 0.143689,-2.404074 1.552532,-4.515993 3.818557,-5.724156 l 1.047069,-0.558257 15.003346,-0.05768 c 14.80408,-0.05692 15.01896,-0.05184 16.17964,0.382426 2.14271,0.801698 3.83831,2.901416 4.28839,5.310447 0.1088,0.582737 -0.0439,7.698892 -0.39448,18.389655 l -0.57208,17.439081 0.7339,1.780017 c 0.67355,1.633614 2.1417,5.789225 2.1416,6.0618 -7e-5,0.0638 -2.23815,0.125547 -4.9736,0.137319 -7.8507,0.03377 -13.75667,1.006111 -18.95191,3.120203 -0.28955,0.117718 -0.36646,0.04209 -0.36646,-0.360153 0,-1.040196 -1.12358,-3.897063 -4.54777,-11.563387 -2.305426,-5.161568 -2.850865,-6.237853 -3.93889,-7.772269 -1.2549,-1.769754 -2.855976,-2.816572 -4.307923,-2.816572 -0.825779,0 -2.07378,0.535387 -2.07378,0.889652 0,0.155494 0.665937,0.837487 1.479867,1.515487 0.813914,0.677996 1.696353,1.615711 1.960974,2.083812 4.140527,7.324708 5.357562,9.870846 7.019092,14.684325 0.59407,1.721109 1.26469,3.442784 1.49023,3.825974 0.22557,0.383165 0.36187,0.774665 0.30308,0.87001 -0.059,0.09528 -0.60761,0.455811 -1.21932,0.801044 -3.965646,2.238046 -7.235298,6.159389 -9.564857,11.471189 -1.597491,3.64257 -2.253566,5.96018 -3.444419,12.1677 -1.423532,7.420316 -1.545912,7.865686 -2.204226,8.021086 -0.275569,0.0651 -0.53945,0.23352 -0.586379,0.37429 -0.104307,0.31296 0.05982,0.32386 0.591572,0.0392 0.378809,-0.20282 0.405069,-0.13818 0.405069,0.99608 0,0.66709 0.08766,1.51853 0.194804,1.89212 0.107154,0.37358 0.156451,0.67922 0.109554,0.67922 -0.04686,0 -0.472227,-0.49474 -0.945233,-1.09944 z m 0.222044,-1.16922 c 0,-0.53323 -0.223495,-0.70274 -0.559198,-0.42414 -0.214261,0.17775 -0.225506,0.30539 -0.04598,0.52172 0.332443,0.40056 0.605186,0.35657 0.605186,-0.0976 z m -0.514006,-2.85246 c 0.463242,-0.46327 0.513943,-0.68561 0.51342,-2.25121 0,-1.155156 -0.238865,-2.894866 -0.711694,-5.192506 -1.074188,-5.21967 -1.420621,-7.67824 -1.345356,-9.54819 0.04765,-1.18412 -0.01517,-1.79583 -0.20869,-2.02911 -0.152294,-0.18366 -0.356148,-1.16422 -0.453003,-2.17899 -0.215745,-2.26027 -0.324343,-2.54928 -1.589681,-4.23127 -1.900095,-2.525762 -3.805844,-3.146211 -6.1206836,-1.99267 -1.392853,0.69407 -2.890432,2.15004 -3.402701,3.3081 -0.739379,1.6715 -0.965335,4.95304 -0.495997,7.20315 0.09887,0.47407 0.106852,0.47226 0.924207,-0.20942 0.817008,-0.68135 0.820523,-0.6906 0.388524,-1.02114 -0.625959,-0.47891 -0.392316,-0.96431 1.200359,-2.49368 l 1.367496,-1.31313 1.8337096,0.10457 c 1.971504,0.11241 2.750503,0.38319 2.750503,0.95606 0,0.5183 -1.557119,2.82788 -2.413472,3.57976 -0.443394,0.38931 -0.7277346,0.83145 -0.7277346,1.13159 0,0.76291 -0.609249,2.36985 -1.049562,2.76835 -0.375015,0.33938 -0.477107,0.3342 -1.894397,-0.0963 -0.82392,-0.25028 -1.537308,-0.41574 -1.585349,-0.36771 -0.137223,0.13723 1.126165,3.59215 2.198156,6.01121 l 0.974402,2.19883 1.484661,0.13291 c 1.8421476,0.16492 2.4724636,0.4636 2.2984396,1.08916 -0.395874,1.42322 -0.40063,1.37404 0.119939,1.24231 0.587364,-0.14867 0.79684,-0.42159 0.80113,-1.04384 0.0021,-0.25529 0.336174,-0.79716 0.743126,-1.20413 0.646086,-0.64607 0.870387,-0.73993 1.768353,-0.73993 1.328775,0 2.236288,0.68026 2.025892,1.51858 -0.207039,0.82489 -1.085601,1.747376 -2.020424,2.121406 -0.461129,0.18451 -0.838431,0.42721 -0.838431,0.53931 0,0.11205 -0.282691,0.52581 -0.628241,0.91934 -0.777531,0.88556 -0.787771,1.14062 -0.05233,1.30281 0.316726,0.0698 0.670124,0.15846 0.785302,0.19687 0.115198,0.0385 0.802681,0.0773 1.527777,0.0864 1.132847,0.0142 1.390676,-0.0558 1.832371,-0.49748 z m -7.268629,-8.893036 c -0.980369,-0.19705 -1.8435726,-0.76139 -1.8745226,-1.22554 -0.115222,-1.7283 0.9698786,-2.56049 3.3387046,-2.56049 1.030063,0 1.52579,0.0905 1.70978,0.31221 0.361867,0.43604 0.0967,1.99707 -0.486889,2.86599 -0.508351,0.75696 -1.184295,0.90985 -2.687073,0.60783 z m 2.530705,-0.95894 c 0.165454,-0.34553 0.307559,-1.00117 0.31577,-1.45698 0.01286,-0.72221 -0.05973,-0.85547 -0.565961,-1.03689 -0.888753,-0.3185 -2.863,0.1543 -3.4503226,0.82633 -0.491914,0.56284 -0.586022,1.05749 -0.289979,1.52436 0.279163,0.44025 1.7265946,0.87175 2.7489296,0.8195 0.817383,-0.0417 0.980143,-0.13043 1.241553,-0.67632 z m 7.234284,2.46318 c 0.908039,-6.20484 3.013023,-12.12765 5.878494,-16.54029 1.3849,-2.13271 4.224716,-5.029395 6.115705,-6.238185 0.9198,-0.587992 1.30754,-0.965718 1.30882,-1.275079 0.002,-0.649963 -1.56879,-5.905836 -2.525928,-8.44795 -0.790032,-2.098303 -3.187538,-6.74691 -4.749369,-9.208716 -1.033516,-1.629032 -4.004283,-4.539967 -4.81505,-4.718031 -0.754141,-0.165651 -2.464841,0.451497 -4.405186,1.58922 -1.797859,1.054169 -5.582993,4.950648 -6.911118,7.114394 -1.2008416,1.956387 -2.3472546,4.585726 -2.8653866,6.571763 -0.730182,2.798936 -1.260104,9.318912 -0.757429,9.318912 0.105899,0 0.787062,-0.152299 1.513728,-0.338478 1.7680786,-0.452964 3.1875916,-0.28694 4.7733556,0.558261 1.809336,0.964366 3.190942,2.506589 3.747419,4.183059 0.64288,1.93685 0.971848,4.60708 0.677452,5.49908 -0.183922,0.55732 -0.168026,0.86188 0.07559,1.44486 0.169741,0.40628 0.552872,2.09518 0.85139,3.75311 0.72231,4.01185 1.363096,7.34849 1.476223,7.68714 0.170268,0.50965 0.464332,0.0511 0.611301,-0.95307 z m -1.871513,-1.36376 c -0.233652,-1.86322 -0.992328,-6.10217 -1.17125,-6.54419 -0.25311,-0.62534 -0.242491,0.72843 0.0188,2.40826 0.290047,1.86393 1.051885,5.23535 1.18304,5.23535 0.05897,0 0.04511,-0.49474 -0.03067,-1.09942 z m -1.996574,-13.29326 c -0.193452,-0.30369 -0.214789,-0.24278 -0.117635,0.33578 0.06526,0.38874 0.133728,0.85992 0.152163,1.04707 0.01847,0.18718 0.07137,0.0361 0.117635,-0.33577 0.04627,-0.37186 -0.0221,-0.84304 -0.152163,-1.04708 z M 39.696771,69.405518 c 1.40812,-0.555028 5.82068,-1.632048 8.32366,-2.031641 1.35814,-0.216839 4.10783,-0.372949 7.82382,-0.444172 l 5.7297,-0.109879 -0.10722,-0.660926 c -0.15797,-0.974149 -1.52869,-4.559487 -2.57707,-6.741411 -1.38596,-2.884445 -2.76182,-4.834402 -4.68503,-6.639968 -2.85674,-2.681984 -7.05784,-4.477392 -12.45139,-5.321329 -2.97081,-0.46486 -13.448915,-0.52521 -14.464753,-0.08331 l -0.628242,0.273294 0.523535,0.3346 c 1.076287,0.687863 2.657877,2.505868 3.590896,4.127651 2.451664,4.261446 4.859334,9.631317 6.650164,14.831878 0.84547,2.455248 1.01327,2.863586 1.17661,2.863586 0.0466,0 0.53942,-0.179268 1.09534,-0.398411 z"
         id="path1696"
         inkscape:connector-curvature="0" />
      <path
         style="fill:#0b0a06;stroke-width:0.20941381"
         d="m 42.680371,260.79613 c -3.90684,-0.43578 -4.42893,-0.54411 -5.69342,-1.18129 -1.3471,-0.6788 -2.41656,-1.82622 -3.15152,-3.38126 -0.60922,-1.289 -0.62544,-1.41551 -1.0198,-7.94934 -0.2203,-3.65175 -0.47921,-6.71804 -0.57515,-6.81398 -0.096,-0.096 -1.668772,-0.27866 -3.495229,-0.40599 -3.962059,-0.27637 -7.180268,-0.0297 -10.170173,0.77757 -4.798904,1.29666 -6.001819,1.39222 -6.471724,0.51416 -0.551554,-1.03057 1.512116,-3.29626 4.344519,-4.76985 3.412231,-1.77524 7.996236,-2.92492 12.464183,-3.12604 1.668456,-0.0751 2.748104,-0.2137 2.877074,-0.36899 0.25229,-0.30407 -0.16192,-8.27732 -0.445893,-8.58207 -0.10421,-0.11181 -1.118897,-0.22129 -2.254613,-0.24339 -3.876101,-0.0749 -7.256073,-1.41256 -9.671745,-3.82782 -1.952344,-1.95203 -2.67593,-3.54038 -2.949592,-6.47457 -0.173039,-1.85544 -0.15589,-2.34102 0.101207,-2.86267 0.170268,-0.34556 0.564853,-1.38214 0.876816,-2.30355 1.603398,-4.73577 5.283362,-8.1061 10.852912,-9.93985 0.785748,-0.25855 1.483346,-0.61297 1.55025,-0.78733 0.136209,-0.35547 -0.941136,-20.64773 -1.163676,-21.91444 l -0.142466,-0.81068 -3.202086,-0.80339 c -5.236773,-1.31393 -9.681999,-3.28835 -13.581514,-6.03253 -1.8160166,-1.27799 -4.9280316,-4.20592 -6.1399066,-5.77672 l -0.886389,-1.14894 0.249813,-4.03569 c 0.278306,-4.49616 0.854662,-7.26365 2.15261,-10.33656 2.257837,-5.34543 6.7359406,-9.1192 12.1346676,-10.22603 0.991679,-0.20347 2.67926,-0.3309 4.376123,-0.3309 h 2.761979 l -0.15236,-3.5077 c -0.08377,-1.92921 -0.36194,-6.99442 -0.618184,-11.25598 l -0.465887,-7.74832 -0.990092,-1.51325 c -0.544538,-0.83231 -1.552383,-2.63195 -2.239659,-3.99921 -1.121746,-2.23166 -1.249571,-2.61776 -1.249571,-3.77443 0,-0.70871 0.0714,-1.2885 0.158726,-1.2885 0.08729,0 0.475831,0.93682 0.863435,2.08184 0.400043,1.18179 0.910762,2.27541 1.181282,2.52955 l 0.476543,0.44768 1.372498,-0.6619 c 1.688235,-0.81422 3.40279,-0.92377 4.289384,-0.27406 0.736343,0.53956 1.290454,1.66076 1.290852,2.61184 0,1.07843 -0.667886,3.09997 -1.439519,4.35402 -0.359829,0.5848 -0.654294,1.14683 -0.654294,1.2489 0,0.5383 7.250739,6.51967 8.708259,7.18375 0.41605,0.18963 0.63253,0.0831 1.69558,-0.83285 2.1162,-1.8236 3.57709,-2.28821 5.32333,-1.69301 1.08144,0.3686 2.40316,1.34444 2.8918,2.13503 0.48815,0.78987 0.59513,2.40707 0.18632,2.81594 -0.19556,0.19557 -0.19094,0.41887 0.0198,1.00586 0.2658,0.73465 0.25293,0.77472 -0.48149,1.52697 -0.4149,0.42486 -0.75436,0.87927 -0.75436,1.00976 0,0.1306 0.93716,0.85132 2.08253,1.60181 1.14538,0.75042 2.65237,1.88832 3.34881,2.52859 1.36885,1.2584 1.64118,1.33765 2.85469,0.83057 0.66782,-0.279 0.99457,-0.29482 1.99929,-0.0973 0.70268,0.13817 1.78094,0.17676 2.59872,0.093 1.57327,-0.16126 1.76629,-0.0376 1.77174,1.13344 0.002,0.38005 0.15038,0.97588 0.3306,1.32409 0.20381,0.39403 0.27735,0.86054 0.19524,1.23525 -0.20348,0.9263 -1.53159,2.24527 -3.01906,2.99818 l -1.34467,0.68067 -0.37997,2.29429 c -0.20908,1.26182 -0.43037,2.50689 -0.49201,2.76677 -0.0637,0.26811 -1.10607,1.29582 -2.41123,2.37686 -2.08151,1.72399 -2.29926,1.97014 -2.29926,2.5992 0,0.38219 -0.0587,0.84799 -0.1306,1.03507 -0.34944,0.91063 -5.47005,2.62588 -7.83926,2.62588 -0.64005,0 -0.94019,-0.13224 -1.35404,-0.59675 -0.51459,-0.57751 -0.6139,-0.60086 -3.09046,-0.72625 -1.40732,-0.0713 -4.28253,-0.41111 -6.38932,-0.75531 -3.673123,-0.6 -3.914098,-0.66962 -5.863592,-1.69345 -2.696105,-1.41589 -2.920827,-1.59016 -2.634851,-2.04354 0.124659,-0.19754 0.531074,-0.44656 0.903161,-0.55328 0.569888,-0.16358 0.854065,-0.0979 1.802363,0.41497 0.760717,0.41147 1.194681,0.54012 1.338105,0.3967 0.13818,-0.13819 0.159286,-1.2712 0.06068,-3.24364 l -0.151702,-3.03132 -1.465896,-0.11772 c -1.683601,-0.13489 -2.028484,-0.29055 -3.454801,-1.55726 -1.459155,-1.29596 -3.11237,-1.78047 -6.074843,-1.78047 h -2.260727 l -1.224882,0.92544 c -1.320751,0.9979 -2.232477,2.01957 -3.5657526,3.99577 -2.472966,3.66541 -3.422659,7.09989 -3.41491,12.34991 0.0055,3.79927 0.909776,6.19223 3.295126,8.72082 2.3293296,2.4692 5.2882846,4.17252 9.9685776,5.73843 5.456423,1.82556 9.975218,2.39771 18.968414,2.4016 5.10999,0.002 6.11798,-0.0557 9.12717,-0.52469 4.40413,-0.68624 8.86701,-1.81313 10.56149,-2.66671 1.38256,-0.69647 4.64209,-3.50538 7.78936,-6.71249 3.16271,-3.22285 5.6986,-7.48068 6.69699,-11.24443 0.62402,-2.35256 0.67686,-6.53802 0.10819,-8.58596 -0.49035,-1.76643 -1.73295,-4.41376 -2.8622,-6.0979 -1.25727,-1.8751 -7.065,-7.61109 -9.04473,-8.93311 -0.8888,-0.59351 -2.11386,-1.46885 -2.72238,-1.94523 -0.60852,-0.47641 -3.08534,-2.13527 -5.50409,-3.68642 -7.84534,-5.03123 -10.19618,-6.78873 -13.42128,-10.03382 -4.28434,-4.31086 -6.48066,-7.71979 -10.040621,-15.583986 -2.072142,-4.57752 -2.904785,-6.68577 -2.715356,-6.87521 0.132904,-0.13296 0.02308,-0.27513 1.573638,2.05868 1.562855,2.35418 3.333897,4.13635 6.243169,6.282416 5.3948,3.97957 14.13805,8.79107 17.51558,9.63902 2.00743,0.50398 4.32481,0.61752 4.7863,0.23447 0.27141,-0.22523 0.373,-0.1906 0.63122,0.21667 0.25525,0.40252 0.27701,0.94923 0.12861,3.2076 -0.0985,1.49729 -0.18336,3.16944 -0.18897,3.71586 l -0.01,0.99348 1.83239,1.19091 c 1.00779,0.65503 3.01476,1.99848 4.45992,2.9854 1.44512,0.98694 2.77738,1.88867 2.96058,2.00387 1.46494,0.92112 6.1096,4.95876 8.89297,7.73064 l 3.38217,3.36829 1.2773,2.61768 c 0.7278,1.49162 1.51991,3.51848 1.84129,4.71181 0.5112,1.89788 0.56406,2.43754 0.56406,5.75888 0,3.32179 -0.0528,3.8607 -0.56423,5.75888 -0.67744,2.51421 -1.83653,4.99328 -3.13325,6.70124 -1.3921,1.83354 -7.3007,7.57574 -9.3614,9.09772 -1.77784,1.31308 -4.22841,2.65883 -5.72698,3.145 -0.43997,0.1428 -0.84558,0.37843 -0.90134,0.52371 -0.0557,0.14543 0.41098,0.94526 1.03721,1.77768 2.35905,3.13585 4.39281,7.91386 5.04057,11.84202 1.53053,9.28176 -0.70194,18.45382 -5.73767,23.57304 -1.91714,1.94897 -2.8794,2.52207 -6.14213,3.65821 -3.55488,1.23788 -3.7547,1.7514 -1.04993,2.69802 0.90341,0.31626 2.60137,1.04723 3.77317,1.62452 1.89023,0.93128 2.30511,1.2423 3.67829,2.75753 2.53134,2.79312 3.53873,4.13297 4.27828,5.69032 2.86844,6.04008 0.91614,12.42922 -4.68896,15.34535 -2.28772,1.1902 -4.29941,1.70806 -7.23463,1.86244 -2.28453,0.12001 -2.47089,0.16158 -2.54945,0.56857 -0.0466,0.24141 -0.17248,2.65359 -0.27933,5.36027 -0.17214,4.35667 -0.24997,5.06517 -0.67816,6.17616 -0.67369,1.74822 -2.43679,3.50403 -3.97818,3.96177 -1.30931,0.38886 -1.23609,0.38991 -5.44211,-0.0791 z m 5.92067,-2.23159 c 0.5736,-0.40317 1.09516,-1.03915 1.49783,-1.82652 0.55179,-1.07892 0.63664,-1.50949 0.79431,-4.02975 0.097,-1.55197 0.15005,-3.96154 0.11772,-5.35469 l -0.0587,-2.53296 -4.92123,-0.99278 c -6.47629,-1.30648 -11.24324,-2.03461 -11.51845,-1.7594 -0.14148,0.14148 -0.10783,1.99988 0.1012,5.64398 0.3707,6.45666 0.4117,6.78909 0.97566,7.91314 1.09047,2.17338 2.22886,2.73546 6.62095,3.26912 4.27708,0.51968 5.25318,0.46926 6.39061,-0.33014 z m 10.72772,-15.26109 c 3.49814,-0.95542 6.42245,-3.19526 7.69038,-5.89027 0.60238,-1.28032 0.68592,-1.68444 0.75607,-3.65669 0.0637,-1.78655 -0.006,-2.5314 -0.36475,-3.83422 -0.83271,-3.03515 -1.97971,-4.61806 -5.53113,-7.63318 -1.56711,-1.33046 -1.99118,-1.56556 -4.56288,-2.52936 -1.55936,-0.58442 -2.94419,-1.06257 -3.07746,-1.06257 -0.37293,0 -0.42665,0.46885 -0.8768,7.65696 -0.53003,8.46296 -0.52901,9.01677 0.0198,10.39722 0.24173,0.60894 0.48923,1.8147 0.54997,2.67943 0.10916,1.55494 0.10228,1.58324 -0.64895,2.56715 -0.79798,1.0454 -0.93236,1.50564 -0.49761,1.70397 0.50949,0.2325 5.30283,-0.0593 6.54417,-0.39844 z m 4.40706,-8.29204 c -1.1987,-2.2024 -2.10354,-2.89461 -4.8643,-3.72138 -1.83859,-0.55058 -3.2838,-1.58156 -3.38024,-2.4114 -0.21699,-1.86821 3.54682,-2.84971 6.92597,-1.80601 2.58881,0.7996 4.33941,3.01006 4.34367,5.48457 0.002,1.41639 -0.25065,2.16759 -0.99282,2.94541 -0.84185,0.88245 -1.35177,0.75924 -2.03228,-0.49119 z m -13.35439,7.51576 c 0.14905,-0.31165 0.3245,-1.15983 0.39029,-1.88473 0.0999,-1.10006 0.0297,-1.55592 -0.42585,-2.75651 -0.3001,-0.79116 -0.54543,-1.86082 -0.54543,-2.377 v -0.9385 l -2.67001,0.14313 c -1.46851,0.0788 -3.02248,0.23316 -3.45322,0.34271 -0.87548,0.22293 -0.90325,0.28922 -1.08951,2.59271 -0.11446,1.41472 -0.15137,1.49554 -1.05999,2.31487 -0.51781,0.46694 -0.94147,0.95446 -0.94147,1.0834 0,0.32287 8.10223,2.17761 9.10754,2.08491 0.22921,-0.0198 0.53871,-0.29351 0.68765,-0.60513 z m -33.183039,-1.20873 c 1.518333,-0.45818 3.514489,-0.94059 4.43591,-1.07204 2.212036,-0.3156 10.544869,-0.0742 14.449539,0.4186 2.88693,0.36428 3.7207,0.29582 3.27644,-0.2691 -0.10119,-0.12862 -0.43306,-0.99084 -0.73749,-1.91593 -0.63913,-1.94227 -1.40812,-3.18453 -2.07359,-3.34973 -0.25592,-0.0637 -1.5962,-0.0884 -2.97833,-0.0548 l -2.512969,0.0607 -0.177097,0.83765 c -0.09758,0.46072 -0.216996,1.04968 -0.265796,1.30883 -0.07514,0.40102 -0.22129,0.4712 -0.980324,0.4712 -1.079026,0 -1.729331,-0.41837 -2.125996,-1.36776 -0.346803,-0.83004 -0.938471,-1.04648 -2.384185,-0.87221 -1.776832,0.21436 -2.622758,0.60199 -2.830517,1.29761 -0.446617,1.49515 -0.509337,1.5706 -1.305528,1.5706 -0.504667,0 -0.968349,-0.17578 -1.381755,-0.52353 -0.814326,-0.68523 -1.090772,-0.66397 -2.857531,0.21996 -2.38401,1.1927 -4.324544,3.27484 -3.665897,3.93345 0.301622,0.30175 1.470234,0.10457 4.11515,-0.69344 z m 29.069619,-7.54259 c 3.18675,-0.26416 3.36962,-0.344 3.9163,-1.7115 1.20306,-3.00925 1.51823,-4.84646 1.71762,-10.01228 0.10855,-2.81538 0.11109,-4.99532 0.006,-5.10043 -0.33704,-0.33704 -9.77676,3.68908 -16.22,6.91798 l -2.28044,1.14277 0.14577,3.70065 c 0.0801,2.03541 0.19952,4.05409 0.26547,4.48601 l 0.11965,0.78532 4.94682,-0.004 c 2.72073,-0.002 6.04295,-0.0943 7.38268,-0.20513 z m -11.6442,-11.46826 c 7.33152,-3.67276 13.53552,-6.29485 19.78374,-8.36155 2.24597,-0.74288 4.4675,-1.57404 4.93671,-1.84706 2.95423,-1.71878 5.48463,-5.33923 6.96214,-9.96144 1.00614,-3.14754 1.18986,-4.52353 1.18608,-8.88415 -0.004,-4.26143 -0.2236,-5.83118 -1.26364,-9.01701 -1.02693,-3.14588 -3.13286,-6.96662 -4.82846,-8.75999 l -0.57205,-0.60509 -2.45215,0.11314 c -1.34865,0.062 -2.652,0.21996 -2.89624,0.35066 -0.42308,0.22623 -0.44613,0.40626 -0.48604,3.79035 -0.023,1.95394 -0.0466,3.90489 -0.0525,4.33536 -0.01,0.76999 0.004,0.78496 0.93187,0.91885 2.77159,0.40029 3.66438,1.1062 4.39852,3.47792 0.90576,2.92618 0.83057,4.00066 -0.31824,4.54572 -0.9664,0.45858 -1.45759,0.27802 -1.83958,-0.67592 -0.17116,-0.4276 -0.4863,-0.92508 -0.70021,-1.10558 -0.51842,-0.43749 -3.20138,-2.08163 -3.3851,-2.07441 -0.0799,0.004 -0.49762,0.75086 -0.92866,1.66159 -0.90087,1.90362 -2.55032,3.81106 -4.19565,4.8519 -0.6015,0.38051 -1.15653,0.78216 -1.23341,0.89247 -0.0768,0.11048 0.0768,0.49039 0.34176,0.84455 0.75815,1.01385 1.09882,1.80356 1.56395,3.62537 0.57975,2.27056 0.55644,2.68606 -0.1926,3.43521 -0.48584,0.48586 -0.77819,0.61089 -1.30882,0.55978 -0.58369,-0.0564 -0.75953,-0.21667 -1.20678,-1.10037 -0.42473,-0.83931 -0.79696,-1.20035 -1.97245,-1.91306 -1.58545,-0.96125 -2.52728,-1.75409 -3.18256,-2.6791 l -0.42559,-0.60081 -4.37177,1.14561 c -2.40446,0.63009 -4.40164,1.23525 -4.43812,1.3448 -0.0365,0.10952 0.33572,0.61917 0.82727,1.13252 1.38533,1.4468 2.96773,4.11796 2.94364,4.96884 -0.0264,0.97586 -0.94762,1.92875 -1.86211,1.92875 -0.53314,0 -0.80992,-0.16885 -1.30845,-0.79838 -0.59392,-0.74983 -0.76261,-0.82574 -2.77706,-1.25001 -2.72466,-0.57384 -4.223964,-1.29366 -4.936202,-2.36994 -0.297466,-0.44937 -0.645967,-0.81694 -0.774629,-0.81692 -0.42643,0 -2.615539,1.86323 -3.491328,2.97117 -0.987239,1.24897 -2.082661,3.31248 -2.082661,3.9232 0,0.38974 0.104246,0.40726 1.736248,0.29219 1.347098,-0.0949 1.875114,-0.0498 2.355905,0.20282 1.58273,0.83096 4.284382,4.63303 4.284382,6.02947 0,0.88386 -0.701255,1.77359 -1.569679,1.99154 -0.469186,0.11771 -0.707226,-0.006 -1.490509,-0.77471 -0.857783,-0.84187 -1.102836,-0.95313 -3.071893,-1.39524 -2.995643,-0.6726 -2.988879,-0.67251 -2.918304,-0.0475 0.170828,1.51352 1.913998,3.78079 3.887491,5.0563 2.388785,1.54396 4.508402,2.08115 7.786434,1.97328 2.094205,-0.069 2.106845,-0.0725 4.607105,-1.32502 z m 2.29768,-24.97852 c 2.30355,-0.59612 4.39265,-1.21229 4.64239,-1.3693 0.24965,-0.15698 1.10831,-0.42183 1.90784,-0.58854 3.34607,-0.69769 6.48236,-3.0333 7.88505,-5.87212 1.18728,-2.40295 1.59124,-4.59246 1.73097,-9.38207 0.1059,-3.62949 0.0804,-4.14683 -0.20744,-4.2574 -0.18039,-0.0692 -1.06493,0.023 -1.96565,0.20546 -3.74421,0.75755 -6.18453,0.99466 -11.27065,1.09518 -2.87942,0.0571 -5.98923,0.0131 -6.91065,-0.096 -1.205695,-0.14345 -1.741207,-0.13323 -1.910356,0.0369 -0.173792,0.17478 -0.07852,2.93615 0.366231,10.60247 0.330747,5.70126 0.648095,10.49024 0.705255,10.64218 0.0571,0.15203 0.26942,0.2292 0.47139,0.17149 0.20215,-0.0578 2.2522,-0.59247 4.55575,-1.18859 z m 29.94617,-27.89678 c 2.34257,-1.16775 4.72932,-2.7705 6.75084,-4.53338 1.75005,-1.52614 2.30257,-2.2052 1.96438,-2.41422 -0.10228,-0.0633 -1.65339,0.2137 -3.44679,0.61555 -1.7934,0.40178 -3.30742,0.73051 -3.36445,0.73051 -0.0571,0 -0.5167,0.63609 -1.02153,1.41352 -0.50484,0.77744 -1.43876,2.02607 -2.07541,2.77475 -2.36991,2.78695 -2.13085,3.07017 1.19296,1.41327 z m 5.69356,-6.9411 c 1.70598,-0.39122 3.40988,-0.77605 3.78636,-0.85516 0.53531,-0.11242 0.94939,-0.49376 1.89986,-1.74932 1.59029,-2.10071 2.26995,-3.32671 1.99606,-3.6006 -0.2292,-0.2292 -8.12327,1.7478 -8.62874,2.16099 -0.15335,0.12531 -0.56427,0.799 -0.9131,1.49696 -0.34882,0.69795 -0.85946,1.56899 -1.13467,1.93564 -0.51018,0.67953 -0.65802,1.32281 -0.30406,1.32281 0.10819,0 1.59224,-0.32023 3.29829,-0.71132 z m 3.60993,-5.89413 c 4.95048,-1.2796 4.7653,-1.19079 5.16226,-2.47685 0.42674,-1.38259 0.82654,-5.44948 0.6357,-6.4667 -0.11314,-0.60347 -0.24636,-0.78529 -0.57564,-0.78529 -0.70126,0 -7.17677,2.11927 -7.42718,2.43069 -0.12695,0.15797 -0.28888,0.97422 -0.35988,1.81392 -0.0709,0.83973 -0.38091,2.37211 -0.6887,3.40523 -0.65914,2.21246 -0.81895,3.03027 -0.59212,3.03027 0.0911,0 1.82143,-0.42806 3.84556,-0.95127 z m -31.60605,-4.1787 c 1.96466,-0.51038 4.87413,-1.97077 6.80594,-3.41619 2.47184,-1.84943 2.57533,-1.99431 2.96187,-4.14537 l 0.33622,-1.87128 -0.67125,-1.61241 c -1.29328,-3.10658 -3.10073,-5.35776 -5.87275,-7.31435 -0.74865,-0.52842 -3.19879,-2.02264 -5.44476,-3.32048 -5.73378,-3.31328 -8.79452,-5.392 -11.761705,-7.988 -0.767634,-0.67164 -1.497949,-1.22113 -1.622935,-1.22113 -0.277021,0 -0.277021,-0.0788 -0.01649,8.12288 0.116416,3.65245 0.298452,10.02238 0.405075,14.15549 0.106502,4.13307 0.273057,7.59397 0.369789,7.69087 0.222279,0.22226 2.763536,0.75118 5.439316,1.13228 2.63915,0.37586 7.2195,0.26878 9.07092,-0.21239 z m 33.51168,-5.14595 c 1.82496,-0.58389 3.42393,-1.18911 3.55321,-1.34493 0.68179,-0.82153 -1.79513,-8.06404 -2.75787,-8.06404 -0.50523,0 -6.47326,2.44496 -6.82721,2.79694 -0.21701,0.21567 -0.16358,0.50093 0.28294,1.50929 0.67337,1.52038 1.3457,4.07651 1.3457,5.11596 0,1.36021 0.11181,1.35985 4.40316,-0.0131 z m -3.04198,-8.52795 c 2.70445,-1.13401 3.36286,-1.49044 3.41391,-1.84815 0.0458,-0.32056 -0.61303,-1.17361 -2.38055,-3.08238 -1.34408,-1.45155 -2.62974,-2.69818 -2.85697,-2.77029 -0.63856,-0.20283 -6.65764,2.37148 -6.65764,2.8473 0,0.33397 0.99295,1.36877 1.73533,1.80854 0.16192,0.096 0.91881,1.14043 1.6817,2.321 0.76293,1.18056 1.46056,2.14255 1.55036,2.1377 0.0897,-0.004 1.67103,-0.64103 3.51386,-1.41372 z m -5.96829,-6.81736 c 2.32928,-0.99645 3.0365,-1.38824 3.0365,-1.68214 0,-0.21074 -0.48973,-0.77351 -1.08895,-1.25121 -0.59892,-0.47743 -1.85696,-1.50419 -2.79566,-2.28161 -0.9387,-0.77745 -1.8622,-1.41423 -2.05225,-1.41503 -0.62459,-0.002 -6.15109,2.183 -6.26405,2.47733 -0.12037,0.3133 0.86068,1.24988 3.19612,3.0513 0.80625,0.62188 1.74269,1.42315 2.08097,1.78065 0.3383,0.35745 0.66812,0.64312 0.73296,0.63483 0.065,-0.01 1.48429,-0.59964 3.15436,-1.31412 z m -9.54646,-4.69144 c 0.0861,-0.0864 1.39627,-0.62887 2.91173,-1.2055 1.73224,-0.65914 2.77865,-1.16923 2.81802,-1.37369 0.0418,-0.21799 -1.01353,-1.03595 -3.20211,-2.48134 -3.80029,-2.50976 -3.26568,-2.44047 -7.64014,-0.99027 -1.78352,0.59127 -2.63753,0.9757 -2.68001,1.20638 -0.0689,0.37486 2.57474,2.12359 3.56603,2.35879 0.31463,0.0745 0.92157,0.48776 1.34892,0.91803 0.81039,0.81589 2.1039,1.70687 2.49431,1.71811 0.12466,0.004 0.29714,-0.0639 0.38325,-0.15038 z m -5.53133,-6.43945 c 1.66677,-0.51833 3.05539,-0.94237 3.08584,-0.94237 0.0297,0 0.0554,-0.13818 0.0554,-0.30703 0,-0.16885 -0.63609,-0.72074 -1.41352,-1.22667 -4.79683,-3.12146 -6.41001,-4.1488 -6.966,-4.4363 -0.56552,-0.29253 -0.88373,-0.29121 -3.29564,0.01 -2.97125,0.37311 -4.24028,0.64874 -4.24028,0.92105 0,0.27701 1.92511,1.94821 3.80443,3.3025 4.34097,3.12832 5.08711,3.61949 5.49841,3.61949 0.2424,0 1.80466,-0.42406 3.4714,-0.94235 z m 1.36607,-4.55477 c 0.0647,-0.25921 0.09,-1.41033 0.0564,-2.55818 l -0.0614,-2.08702 -1.88472,-0.23943 c -1.03659,-0.13158 -2.29488,-0.35317 -2.79619,-0.49214 -1.55775,-0.43191 -4.39927,-1.75007 -7.77922,-3.60867 -3.42402,-1.88288 -3.97886,-2.14624 -3.97886,-1.88872 0,0.26944 1.69474,1.79641 3.45533,3.11319 3.18547,2.38239 12.09353,8.18547 12.61321,8.21669 0.1418,0.01 0.31066,-0.19655 0.37534,-0.45569 z m -11.21033,-2.65151 c 3.14789,-0.41302 3.3183,-0.6133 1.52862,-1.79704 -3.33866,-2.20824 -5.91243,-4.34657 -10.31391,-8.56884 -4.137861,-3.969376 -5.247579,-4.738256 -5.240656,-3.631006 0.0096,1.427216 5.577126,9.774936 8.863836,13.288466 1.15062,1.22997 1.30256,1.32557 1.89851,1.19428 0.35624,-0.0785 1.82487,-0.29713 3.2636,-0.48586 z m 15.58882,-7.33872 c -0.14346,-0.14511 -0.16786,-0.61904 -0.0675,-1.32198 0.21832,-1.53332 0.21634,-4.17982 -0.004,-4.5272 -0.11507,-0.18145 -0.39493,-0.25011 -0.74614,-0.18297 -0.40809,0.078 -0.69862,-0.0291 -1.05984,-0.390146 -0.27372,-0.2737 -0.70607,-0.49764 -0.96086,-0.49764 -0.25492,0 -0.39512,-0.0681 -0.31198,-0.15137 0.0831,-0.0832 0.92354,-0.16027 1.86725,-0.17113 1.28178,-0.0148 2.15637,-0.16736 3.45684,-0.60319 0.9575,-0.32088 1.78292,-0.54144 1.83423,-0.49011 0.0515,0.0513 -0.19391,0.39389 -0.54503,0.76125 -0.35109,0.36738 -0.58194,0.75919 -0.51305,0.87069 0.19721,0.31917 2.63123,0.23672 3.88438,-0.13159 4.28985,-1.26081 8.36221,-5.39873 8.36221,-8.49681 0,-1.43174 -0.69199,-2.79853 -1.75872,-3.47364 -0.47244,-0.29901 -2.36674,-1.32169 -4.20957,-2.27261 -2.65497,-1.37002 -3.72022,-1.80419 -5.13064,-2.09124 -1.88585,-0.38379 -4.091,-0.45303 -6.20336,-0.1948 -1.57219,0.19223 -1.97978,-0.14824 -0.7784,-0.65023 0.567,-0.23688 1.77732,-0.36528 4.19727,-0.44521 l 3.40056,-0.11229 0.26745,-0.75452 c 0.40709,-1.14893 0.33352,-5.29027 -0.12136,-6.827519 -0.5105,-1.725463 -1.57406,-3.264674 -2.99541,-4.334976 -1.18831,-0.89482 -1.19191,-0.900803 -0.58115,-0.971627 0.52483,-0.06079 0.80501,0.129732 1.9184,1.304931 0.71712,0.756911 1.56526,1.872708 1.88475,2.479527 0.56823,1.079251 0.58215,1.190119 0.63788,5.082174 0.0329,2.18838 0.10385,4.19037 0.16126,4.4489 0.0713,0.32098 0.51813,0.67887 1.40941,1.12863 0.71784,0.36225 1.9648,1.09944 2.77105,1.63822 0.80623,0.53881 2.05173,1.33159 2.76776,1.76176 1.6089,0.96655 2.70698,2.21122 2.88609,3.27134 0.17149,1.01545 -0.18534,2.95501 -0.76371,4.14962 -0.62802,1.29732 -2.67958,3.42335 -4.27687,4.43214 -2.35707,1.48864 -3.19106,1.727736 -6.51936,1.869136 -1.88354,0.08 -3.06664,0.21891 -3.22606,0.37877 -0.14148,0.14173 -0.32912,1.28948 -0.42836,2.61767 -0.23613,3.16461 -0.23712,3.16982 -0.50569,2.89808 z m -41.344894,-2.68978 c 0,-0.0922 0.110844,-0.27838 0.246285,-0.41382 0.135475,-0.13548 0.353803,-0.78466 0.48519,-1.44265 0.308481,-1.54497 0.860964,-1.855726 0.637561,-0.35862 -0.204632,1.37142 -0.647821,2.38262 -1.044243,2.38262 -0.178612,0 -0.324806,-0.0754 -0.324806,-0.16753 z m 29.469154,-0.89009 c 0.25592,-0.26933 0.50589,-0.44783 0.55539,-0.39663 0.0495,0.0511 -0.15995,0.27155 -0.46535,0.48969 l -0.55539,0.39665 z m -37.004845,-1.88165 c 0.0055,-0.51727 0.33772,-0.916226 0.518924,-0.62303 0.08574,0.13875 0.0036,0.40407 -0.183229,0.59077 -0.28256,0.28258 -0.338369,0.28793 -0.335688,0.0323 z m 8.599283,-5.140596 c 0.0099,-0.24398 0.05969,-0.29358 0.126538,-0.12655 0.06051,0.15118 0.05306,0.3318 -0.01649,0.40139 -0.06958,0.0696 -0.119082,-0.0542 -0.110012,-0.27484 z m 38.597092,-0.50184 c -0.50823,-0.20537 -0.75168,-0.69831 -0.5738,-1.16184 0.33539,-0.87408 2.43187,-1.02013 3.3468,-0.23316 l 0.57429,0.49396 -0.55309,0.5531 c -0.43271,0.43271 -0.74884,0.5502 -1.45261,0.5398 -0.49474,-0.007 -1.09844,-0.0937 -1.34159,-0.19186 z m 10.28449,-2.45842 c -0.59971,-0.14608 -1.15177,-0.68911 -1.15177,-1.13294 0,-0.96834 2.31703,-1.34857 3.26243,-0.53537 0.47684,0.41013 0.52756,0.55158 0.33021,0.92033 -0.12828,0.23962 -0.53194,0.53987 -0.89707,0.66715 -0.69213,0.24127 -0.85105,0.24962 -1.5438,0.0808 z M 4.7764904,88.651174 c 0,-0.11518 0.09426,-0.20942 0.209414,-0.20942 0.115198,0 0.209414,0.0942 0.209414,0.20942 0,0.11519 -0.09426,0.20941 -0.209414,0.20941 -0.115198,0 -0.209414,-0.0942 -0.209414,-0.20941 z m 45.9663106,-1.78152 c -0.34551,-0.14152 -1.37444,-0.32223 -2.28646,-0.4016 -0.91202,-0.0794 -1.95303,-0.26746 -2.31333,-0.41801 -0.8885,-0.37122 -1.66738,-1.34705 -2.18987,-2.74351 -0.49919,-1.3342 -0.53894,-2.58416 -0.14114,-4.4381 0.24436,-1.13844 0.23877,-1.35942 -0.0445,-1.76369 -0.38216,-0.54564 -0.43321,-0.49773 2.15875,-2.025934 2.26483,-1.335302 2.69312,-1.505427 3.78969,-1.505427 1.08558,0 1.84267,0.341783 2.62588,1.185427 1.80466,1.943914 2.0199,5.002584 0.5826,8.277374 -0.34327,0.78212 -0.72827,1.94048 -0.85553,2.57418 -0.27932,1.39161 -0.49748,1.59866 -1.32613,1.25929 z m -1.24983,-1.45367 c 1.14858,-0.47991 2.11305,-1.31661 2.8613,-2.48227 0.65927,-1.02709 0.69208,-1.1728 0.69208,-3.07279 0,-2.36129 -0.3589,-3.29158 -1.62327,-4.2075 -2.16475,-1.568133 -5.16691,-0.62456 -6.45073,2.02748 -0.56476,1.16665 -0.79539,4.03532 -0.41666,5.18287 0.35066,1.06246 1.19218,2.00437 2.19961,2.46197 1.02748,0.46672 1.77745,0.49146 2.73767,0.0902 z m -2.51961,-2.60341 c -1.24214,-0.57041 -1.67891,-1.15951 -1.65554,-2.23294 0.023,-1.06558 0.47619,-1.84194 1.40517,-2.40836 1.07556,-0.65583 1.81985,-0.5382 2.77322,0.43821 0.71013,0.72736 0.82503,0.9729 0.80847,1.72767 -0.0297,1.2841 -0.54444,2.12783 -1.54748,2.52917 -1.01026,0.40423 -0.77075,0.41146 -1.78384,-0.0538 z m 2.57925,-3.09769 c -0.0762,-0.64265 -0.52776,-0.8927 -0.71781,-0.39736 -0.13324,0.34679 0.24074,0.95709 0.58639,0.95709 0.10879,0 0.16785,-0.25189 0.13158,-0.55973 z m -32.63012,5.82278 c 0,-0.53521 0.408231,-0.80035 0.648239,-0.421 0.24457,0.38656 0.126473,0.6926 -0.299114,0.77512 -0.232731,0.0451 -0.349115,-0.0729 -0.349115,-0.35412 z m -9.9557636,-0.25103 c -0.07595,-0.12285 -0.09261,-0.26876 -0.03706,-0.32431 0.159386,-0.15938 1.197449,0.15352 1.197449,0.36095 0,0.26422 -0.993835,0.23286 -1.160383,-0.0367 z m -1.003553,-0.75393 c -0.07681,-0.0768 -0.139599,-0.237 -0.139599,-0.35601 0,-0.13122 0.09755,-0.1188 0.247801,0.0314 0.136301,0.1363 0.199125,0.29651 0.139632,0.35601 -0.05952,0.0596 -0.171028,0.0453 -0.247801,-0.0314 z m 10.8895176,-0.62824 c -0.240974,-0.24095 -0.152526,-0.48863 0.174489,-0.48863 0.172774,0 0.314122,0.14134 0.314122,0.31411 0,0.32702 -0.24767,0.41548 -0.488628,0.17449 z m 22.162939,-8.46473 c -0.69107,-0.224413 -1.8631,-0.46868 -2.60448,-0.542882 l -1.34803,-0.134882 0.71978,-0.609099 c 0.86563,-0.732523 4.33506,-2.464209 4.9371,-2.464209 0.27041,0 0.56643,0.256075 0.8022,0.693866 0.34083,0.632872 0.34825,0.812381 0.0841,2.041784 -0.34145,1.589702 -0.55924,1.675082 -2.59075,1.015432 z m -4.58468,-4.082325 c -0.07,-0.182175 -0.12367,-0.488462 -0.11965,-0.680599 0.006,-0.249478 0.093,-0.199712 0.30671,0.17419 0.16455,0.287941 0.30274,0.594215 0.30669,0.680599 0.0132,0.292946 -0.36587,0.158956 -0.49372,-0.17419 z m 23.57881,-14.204335 c -0.49431,-0.911138 -0.84537,-1.795827 -0.78008,-1.965997 0.0653,-0.170135 0.34888,-7.217006 0.63023,-15.659693 0.56554,-16.973378 0.58233,-16.552605 -0.72372,-18.131591 -0.34868,-0.421575 -1.0408,-0.963433 -1.53802,-1.20413 -0.89066,-0.431162 -1.119,-0.437566 -15.44452,-0.433035 -13.718216,0.0043 -14.587861,0.02672 -15.378143,0.393256 -1.035196,0.480316 -2.072989,1.550118 -2.502349,2.579566 -0.434951,1.042802 -0.422386,1.627059 0.305843,14.235201 0.701305,12.141605 0.69691,12.241682 -0.52588,11.980941 -0.345533,-0.07371 -0.638524,-0.146524 -0.651109,-0.161859 -0.01253,-0.01517 -0.334728,-5.634946 -0.715901,-12.488015 -0.66376,-11.933839 -0.678188,-12.510394 -0.341806,-13.650337 0.609918,-2.066792 2.531664,-4.015504 4.498773,-4.561857 0.48975,-0.136036 6.040175,-0.214294 15.247952,-0.215052 16.85774,-0.0012 15.89863,-0.106816 17.99985,1.979022 1.66968,1.657426 2.06007,2.75013 2.02341,5.663413 -0.0647,5.131622 -0.92199,31.30749 -1.05641,32.249726 l -0.14939,1.047069 z"
         id="path1694"
         inkscape:connector-curvature="0" />
      <path
         style="opacity:1;fill:#6a0d0b;fill-opacity:1;stroke:#000000;stroke-width:0.42857143;stroke-miterlimit:4;stroke-dasharray:none;stroke-opacity:1"
         d="m 56.283931,110.1144 c 0.152935,-0.24746 -1.078997,-1.26827 -1.814658,-1.50368 -0.346731,-0.11095 -1.508501,-0.37799 -2.581706,-0.59343 -4.687469,-0.94097 -7.288279,-2.73406 -9.78548,-6.74647 -0.634388,-1.01931 -2.785946,-4.787326 -4.78124,-8.373377 -1.995297,-3.586049 -3.803139,-6.668916 -4.017431,-6.850817 -0.214294,-0.181901 -0.677857,-0.330729 -1.030144,-0.330729 -0.588015,0 -0.640522,-0.04725 -0.640522,-0.57635 0,-1.424141 1.263634,-2.447459 3.022214,-2.447459 1.135962,0 1.364604,0.310613 0.777782,1.056637 l -0.39392,0.500785 0.556914,0.70316 c 1.084855,1.369742 6.236065,6.214509 8.102438,7.620428 2.198132,1.655829 3.865957,2.659211 6.556492,3.944451 3.335943,1.593545 4.761238,1.963166 8.87585,2.301766 0.415771,0.03422 0.118115,0.07781 -0.661459,0.09687 -1.567129,0.03833 -2.246452,0.269391 -1.48963,0.506682 0.247607,0.07764 0.653015,0.299543 0.900903,0.493131 0.247891,0.193592 0.758159,0.363562 1.13393,0.377722 0.516311,0.0194 0.567794,0.0464 0.210749,0.11049 -0.64494,0.1157 -0.735732,0.23213 -0.999315,1.28155 l -0.229108,0.91216 -1.312482,0.44143 c -1.599935,0.53811 -2.661446,0.55341 -4.232256,0.061 -1.642258,-0.51479 -3.672099,-0.51361 -4.188148,0.002 -0.207888,0.20789 -0.377978,0.55146 -0.377978,0.76349 0,0.89877 1.45452,2.973 2.437653,3.47624 0.270415,0.13842 0.959409,0.31158 1.531097,0.38481 2.494216,0.31947 3.532655,0.66282 4.451873,1.47194 0.77614,0.68319 0.842386,0.79759 0.53239,0.91939 -0.496758,0.19519 -0.67722,0.1938 -0.554808,-0.004 z m -7.83124,-7.78929 c 0,-0.25697 -0.08589,-0.20784 -0.581269,0.33248 l -0.458166,0.49972 0.519719,-0.33247 c 0.285842,-0.18286 0.519716,-0.40774 0.519716,-0.49973 z"
         id="path1769"
         inkscape:connector-curvature="0" />
      <path
         style="opacity:1;fill:#eaee8f;fill-opacity:1;stroke:#000000;stroke-width:0.42857143;stroke-miterlimit:4;stroke-dasharray:none;stroke-opacity:1"
         d="m 38.920211,112.04643 c -2.561161,-2.65801 -5.550776,-6.81127 -7.806812,-10.84544 -1.378116,-2.464299 -0.652523,-2.04373 4.079508,2.36457 3.746454,3.49015 5.510601,4.98594 8.612748,7.30261 1.273307,0.9509 2.315104,1.79907 2.315104,1.88483 0,0.1525 -1.611011,0.47322 -3.496278,0.69605 -0.519719,0.0614 -1.192401,0.15848 -1.494848,0.21567 -0.496351,0.0939 -0.711531,-0.0637 -2.209422,-1.61829 z"
         id="path1771"
         inkscape:connector-curvature="0" />
      <path
         style="opacity:1;fill:#eaee8f;fill-opacity:1;stroke:#000000;stroke-width:0.42857143;stroke-miterlimit:4;stroke-dasharray:none;stroke-opacity:1"
         d="m 49.900522,120.7038 c -1.763654,-0.953 -7.9375,-5.47948 -7.9375,-5.81954 0,-0.30156 5.604439,-0.93375 6.432233,-0.72556 0.466857,0.11741 4.554738,2.72613 6.953321,4.43732 0.873882,0.62344 1.128279,0.8973 0.944941,1.01723 -0.261361,0.17097 -4.056872,1.37804 -4.881091,1.55232 -0.311748,0.0659 -0.826061,-0.0912 -1.511904,-0.46177 z"
         id="path1773"
         inkscape:connector-curvature="0" />
      <path
         style="opacity:1;fill:#eaee8f;fill-opacity:1;stroke:#000000;stroke-width:0.42857143;stroke-miterlimit:4;stroke-dasharray:none;stroke-opacity:1"
         d="m 58.499481,126.72858 c -0.207889,-0.11797 -0.771851,-0.56579 -1.253252,-0.99515 -0.481402,-0.42936 -1.544461,-1.17687 -2.362351,-1.66114 -2.083813,-1.23382 -2.509607,-1.59862 -2.148536,-1.84074 0.155917,-0.10455 1.468086,-0.57963 2.915933,-1.05573 2.968747,-0.97622 2.725029,-0.99416 4.832581,0.35579 2.425678,1.55372 4.377197,3.01098 4.221667,3.15246 -0.219292,0.19948 -5.360884,2.27185 -5.618916,2.26476 -0.115033,-0.003 -0.379241,-0.10227 -0.587126,-0.22025 z"
         id="path1775"
         inkscape:connector-curvature="0" />
      <path
         style="opacity:1;fill:#eaee8f;fill-opacity:1;stroke:#000000;stroke-width:0.42857143;stroke-miterlimit:4;stroke-dasharray:none;stroke-opacity:1"
         d="m 65.366487,132.29729 c -0.242776,-0.26414 -0.773089,-0.72386 -1.178473,-1.0216 -0.405384,-0.29774 -0.628843,-0.54135 -0.496578,-0.54135 -0.07009,-1.04167 -3.390066,-2.68784 -3.39657,-2.82342 0,-0.15028 4.492369,-1.92989 5.527609,-2.18972 0.406307,-0.10198 0.67686,0.001 1.318792,0.50276 1.074875,0.8399 4.681873,3.97067 4.681873,4.06374 0,0.14176 -4.407177,2.01333 -5.511715,2.34063 -0.408276,0.12098 -0.587028,0.0584 -0.944938,-0.33104 z"
         id="path1777"
         inkscape:connector-curvature="0"
         sodipodi:nodetypes="ccccccscc" />
      <path
         style="opacity:1;fill:#eaee8f;fill-opacity:1;stroke:#000000;stroke-width:0.42857143;stroke-miterlimit:4;stroke-dasharray:none;stroke-opacity:1"
         d="m 70.399404,138.05763 c -0.611571,-0.85753 -1.531768,-2.00564 -2.044882,-2.55134 -1.994744,-2.23426 -1.509409,-1.85544 1.630058,-3.0685 1.735074,-0.72057 2.929189,-1.11571 3.155032,-1.04403 0.546404,0.17342 5.109109,5.15722 5.109109,5.58063 0,0.0778 -0.148828,0.18647 -0.330729,0.24148 -0.181901,0.055 -1.597356,0.61772 -3.145457,1.25046 -1.5481,0.63275 -2.915184,1.15045 -3.037964,1.15045 -0.122777,0 -0.723609,-0.70162 -1.33518,-1.55915 z"
         id="path1779"
         inkscape:connector-curvature="0"
         sodipodi:nodetypes="ccccscsscc" />
      <path
         style="opacity:1;fill:#eaee8f;fill-opacity:1;stroke:#000000;stroke-width:0.42857143;stroke-miterlimit:4;stroke-dasharray:none;stroke-opacity:1"
         d="m 74.203313,147.96109 c -0.04373,-0.0708 -0.17359,-0.68024 -0.288573,-1.35441 -0.114982,-0.67417 -0.519819,-2.22446 -0.899633,-3.44509 -0.379818,-1.22062 -0.638736,-2.27116 -0.575374,-2.33452 0.228098,-0.22809 5.538761,-2.38115 6.105329,-2.47522 0.552051,-0.0917 0.603502,-0.0433 1.074563,1.00955 1.066536,2.38384 2.045856,5.98566 1.716913,6.3146 -0.383775,0.38378 -6.99866,2.50282 -7.133225,2.28509 z"
         id="path1781"
         inkscape:connector-curvature="0" />
      <path
         style="opacity:1;fill:#eaee8f;fill-opacity:1;stroke:#000000;stroke-width:0.42857143;stroke-miterlimit:4;stroke-dasharray:none;stroke-opacity:1"
         d="m 72.579092,156.91205 c 0,-0.0504 0.214905,-0.83324 0.47757,-1.73963 0.262663,-0.9064 0.635992,-2.53117 0.829622,-3.61061 0.19363,-1.07943 0.425207,-2.03204 0.514618,-2.11691 0.255256,-0.24228 6.867572,-2.33566 6.990214,-2.21302 0.136377,0.13638 0.113234,4.11164 -0.0293,5.03204 -0.05762,0.37209 -0.239511,1.15628 -0.404201,1.74265 l -0.29944,1.06614 -1.818933,0.48507 c -5.234718,1.39597 -6.260153,1.6178 -6.260153,1.35427 z"
         id="path1783"
         inkscape:connector-curvature="0" />
      <path
         style="opacity:1;fill:#eaee8f;fill-opacity:1;stroke:#000000;stroke-width:0.42857143;stroke-miterlimit:4;stroke-dasharray:none;stroke-opacity:1"
         d="m 70.205216,161.49215 c 0.376423,-0.64964 0.868172,-1.54117 1.092777,-1.98118 0.472202,-0.92504 0.513188,-0.94224 5.060862,-2.12288 3.832334,-0.99494 3.746151,-1.00002 3.081957,0.18161 -0.763159,1.35768 -2.349698,3.26635 -2.959179,3.56001 -0.550715,0.26534 -6.016975,1.5403 -6.612856,1.5424 -0.301874,0.001 -0.25731,-0.15524 0.336439,-1.17996 z"
         id="path1785"
         inkscape:connector-curvature="0" />
      <path
         style="opacity:1;fill:#eaee8f;fill-opacity:1;stroke:#000000;stroke-width:0.42857143;stroke-miterlimit:4;stroke-dasharray:none;stroke-opacity:1"
         d="m 64.642468,169.90466 c 5.29e-4,-0.0794 0.556937,-0.82464 1.236567,-1.65618 0.679633,-0.83155 1.628897,-2.08472 2.109478,-2.78484 0.480584,-0.7001 1.008446,-1.31108 1.17303,-1.35772 0.164587,-0.0466 1.362303,-0.3061 2.661597,-0.57657 1.299292,-0.27047 2.560929,-0.53464 2.803636,-0.58703 0.410583,-0.0886 0.422514,-0.0685 0.171461,0.28996 -0.441018,0.62964 -2.975655,2.80136 -4.321437,3.70267 -2.076736,1.39086 -5.836364,3.30453 -5.834332,2.96971 z"
         id="path1787"
         inkscape:connector-curvature="0" />
      <g
         id="layer1-9"
         inkscape:label="Layer 1"
         transform="translate(12.499749,23.040114)">
        <g
           transform="translate(-25.791509,-6.6817382)"
           id="g1327">
          <path
             sodipodi:nodetypes="cccccsccccccccccscsscssccccccc"
             inkscape:connector-curvature="0"
             id="path439"
             d="m 79.774214,103.38879 c -1.326327,-0.17205 -2.800032,-0.82231 -4.058732,-1.79084 -1.379964,-1.06188 -3.306579,-3.448622 -3.04151,-3.767983 0.09731,-0.117135 0.06061,-0.204912 -0.166118,-0.400155 C 72.220505,97.1826 71.587649,95.959626 71.331,95.155439 c -0.295868,-0.926827 -1.842114,-2.814163 -2.305739,-2.814163 -0.07208,0 -0.29685,-0.145346 -0.499174,-0.322998 -0.417951,-0.366978 -0.516442,-0.387299 -2.616548,-0.540134 -1.031639,-0.07506 -1.854466,-0.203602 -2.517663,-0.393193 -5.788003,-5.984774 0.737639,-5.586813 3.558378,-4.140186 0.496816,0.693707 4.706004,-1.006652 4.706004,-1.006652 0,0 -0.246065,2.604726 0.415887,3.125375 1.750241,1.65939 1.386909,0.687576 2.313078,3.415692 0.200522,0.587608 0.84845,2.053616 1.439956,3.257811 0.83826,1.706559 1.196873,2.317842 1.626029,2.771626 1.688512,1.785353 4.566458,1.814763 6.362865,0.065 0.737901,-0.718768 1.000643,-1.334845 0.994254,-2.331586 -0.0098,-1.708469 -1.018074,-3.38204 -2.687811,-4.46624 -0.355501,-0.23083 -0.691178,-0.419713 -0.745928,-0.419713 -0.251308,0 -1.180065,-0.48044 -1.180065,-0.610379 0,-0.170903 0.657266,-0.374124 1.204081,-0.372276 1.120891,0.0036 2.360981,0.449509 4.209779,1.51315 0.539312,0.310284 1.024169,0.564141 1.077444,0.564141 0.05537,0 0.06258,-0.666938 0.01638,-1.558657 -0.07536,-1.46612 -0.06913,-1.549389 0.107797,-1.402533 0.467884,0.388305 1.351032,2.767922 1.597883,4.305427 0.193314,1.203727 0.08585,2.874722 -0.252618,3.928258 -0.913914,2.845391 -3.49252,5.105431 -6.421252,5.627921 -0.920238,0.16419 -0.976234,0.16524 -1.960003,0.0376 z"
             style="fill:#ea3633;fill-opacity:1;stroke:#000000;stroke-width:0.10946358;stroke-opacity:1" />
          <path
             style="fill:#ffffff;fill-opacity:1;stroke:#000000;stroke-width:0.35714287;stroke-opacity:1"
             d="m 430.30046,350.26223 c -3.28126,-1.17256 -6.67803,-5.13597 -8.36657,-8.7052 -0.9967,-2.10685 0.33284,-3.37249 0.30933,-4.01601 -0.19568,-5.35714 2.47843,0.43253 3.83929,1.61593 4.35957,3.79109 6.889,4.50399 10.68043,3.4018 3.83688,-1.11542 5.85482,-4.4702 6.40996,-8.76773 0.58817,-4.55318 -0.97915,-9.19271 -5.50897,-11.50897 -3.55736,-1.81901 -6.77784,-0.98376 -12.9331,3.68814 -0.53442,0.40563 -2.27974,6.16264 -3.18098,8.03214 -0.50428,1.04606 -0.44072,-1.20667 -0.48805,-1.254 -0.3074,-0.3074 0.29158,-5.45523 1.97567,-9.75023 1.10702,-2.82327 3.22073,-5.17047 3.95989,-5.91093 3.55051,-3.55674 7.97017,-5.24693 12.77599,-5.01716 2.72763,0.13041 3.91585,1.19357 5.94271,2.30407 4.13321,2.26456 5.89989,6.77435 6.61892,12.50872 0.41008,3.27044 0.49831,8.46355 -0.5399,11.48131 -1.38441,4.02388 -6.52783,8.82796 -10.1819,10.96939 -3.10449,1.81935 -8.56377,1.91107 -11.31272,0.92873 z"
             id="path39"
             inkscape:connector-curvature="0"
             transform="matrix(0.26458333,0,0,0.26458333,-53.525622,-23.841922)"
             sodipodi:nodetypes="scscccscssssscsccs" />
          <path
             style="fill:#ffffff;fill-opacity:1;stroke:#000000;stroke-width:0.13522749;stroke-opacity:1"
             d="m 24.165642,78.383539 c -0.801287,-0.193503 -1.579886,-0.67126 -1.817707,-1.115364 -0.195698,-0.365443 -0.199556,-0.461598 -0.04088,-1.018789 0.336374,-1.181136 1.276428,-1.597292 3.608103,-1.597292 1.624591,0 1.625549,8.38e-4 1.410874,1.308807 -0.191967,1.169577 -0.585051,2.097912 -0.999296,2.360014 -0.374535,0.236978 -1.325058,0.264523 -2.161099,0.06262 z"
             id="path41"
             inkscape:connector-curvature="0" />
        </g>
        <g
           transform="matrix(3.3551291,0,0,3.3551291,-560.0007,-205.06223)"
           id="g1361">
          <g
             id="g1338"
             transform="translate(25.457423,11.459181)">
            <path
               style="fill:#ea3633;fill-opacity:1;stroke:#000000;stroke-width:0.09022512;stroke-opacity:1"
               d="m 143.24587,74.851076 -0.36703,-0.466172 0.28033,-0.07701 c 0.62277,-0.171074 0.80364,-1.210427 0.46458,-2.669522 -0.1086,-0.467359 -0.27242,-1.318711 -0.36404,-1.891893 -0.19944,-1.247744 -0.30612,-1.651449 -0.419,-1.585588 -0.1944,0.113436 -0.0358,1.515887 0.37546,3.319116 0.42529,1.864939 0.28443,2.517 -0.53822,2.491499 -0.40184,-0.01246 -1.0325,-0.150302 -1.12293,-0.245442 -0.0291,-0.03064 0.0842,-0.190266 0.25194,-0.354716 0.16769,-0.16445 0.27876,-0.343788 0.24681,-0.398528 -0.0358,-0.06137 0.0273,-0.09736 0.16473,-0.09387 0.25116,0.0064 0.70139,-0.439046 0.70803,-0.700462 0.004,-0.171435 -0.22893,-0.276842 -0.64045,-0.289388 -0.29797,-0.0091 -0.65554,0.386756 -0.60826,0.67336 0.0272,0.164966 -0.0192,0.20688 -0.27521,0.248205 -0.16938,0.02735 -0.33195,0.107792 -0.36127,0.178769 -0.0293,0.07098 -0.0913,0.128085 -0.13767,0.126907 -0.0464,-0.0012 0.0266,-0.180874 0.16217,-0.399329 0.13558,-0.218453 0.22174,-0.439645 0.19146,-0.491539 -0.0303,-0.05189 -0.29549,-0.100452 -0.58937,-0.10791 l -0.53432,-0.01356 -0.37836,-0.844454 c -0.35086,-0.783091 -0.74598,-1.904072 -0.68991,-1.957362 0.0133,-0.01267 0.25684,0.06366 0.54113,0.169615 0.2843,0.105954 0.54944,0.173662 0.5892,0.150463 0.15482,-0.09034 0.38181,-0.872069 0.28784,-0.991319 -0.0689,-0.08745 -0.0414,-0.122731 0.11003,-0.141033 0.13581,-0.01641 0.3214,-0.20935 0.5668,-0.58923 0.20068,-0.310653 0.34656,-0.584088 0.32418,-0.607634 -0.0892,-0.09389 -1.10326,-0.209513 -1.28441,-0.146455 -0.17847,0.06212 -0.86603,0.777743 -0.86925,0.904724 -7.8e-4,0.0306 0.18987,0.119806 0.42367,0.198244 l 0.42509,0.142616 -0.36653,-0.003 c -0.30201,-0.0025 -0.4044,0.04557 -0.58164,0.272995 -0.26778,0.343598 -0.3404,0.247134 -0.4043,-0.537048 -0.0779,-0.955453 0.0628,-1.684683 0.40787,-2.114009 0.62899,-0.782659 1.52995,-1.122204 2.1188,-0.798509 0.4111,0.225989 1.066,1.020309 1.16411,1.411934 0.0486,0.193938 0.0846,0.507495 0.0801,0.696793 -0.009,0.386145 0.12715,0.729264 0.25924,0.652189 0.21819,-0.127314 0.0596,-1.453556 -0.25004,-2.091206 -0.27763,-0.571693 -1.13945,-1.139543 -1.75906,-1.159026 -0.17976,-0.0057 -0.50095,0.04622 -0.71374,0.115284 -0.2128,0.06906 -0.42846,0.124507 -0.47926,0.123218 -0.16226,-0.0041 0.0489,-2.300178 0.2855,-3.103827 0.57962,-1.969137 1.94172,-3.64033 3.5862,-4.400016 0.73255,-0.338411 0.88978,-0.29119 1.64374,0.49369 1.22918,1.279567 1.98943,2.830952 2.76139,5.634958 l 0.32368,1.175707 -0.99793,0.973281 c -0.54886,0.535304 -1.12991,1.193311 -1.29121,1.462235 -0.7578,1.263381 -1.31936,2.893296 -1.68001,4.876214 -0.11683,0.642351 -0.31619,1.634858 -0.44303,2.20557 l -0.2306,1.037657 z m -1.40834,-4.345507 c 0.18514,-0.570011 0.12585,-0.63365 -0.56053,-0.601665 -0.53958,0.02514 -0.82603,0.243018 -0.836,0.635871 -0.006,0.238271 0.31507,0.384079 0.91111,0.413708 0.32704,0.01626 0.33792,0.0062 0.48542,-0.447914 z"
               id="path226"
               inkscape:connector-curvature="0" />
            <path
               style="fill:#ea3633;fill-opacity:1;stroke:#000000;stroke-width:0.09022512;stroke-opacity:1"
               d="m 149.23132,63.828446 c -0.0794,-0.212985 -0.2768,-0.796749 -0.43858,-1.297253 -0.39922,-1.23512 -1.26125,-3.143813 -1.80322,-3.992667 -0.24519,-0.384019 -0.68446,-0.91929 -0.97616,-1.189495 -0.35084,-0.324988 -0.49193,-0.511089 -0.41682,-0.549806 0.50113,-0.258331 3.62742,-0.257635 5.00124,0.0011 2.23866,0.421637 3.56642,1.243119 4.53515,2.805885 0.58317,0.940762 1.48857,3.364829 1.29826,3.475874 -0.0407,0.02376 -0.6385,0.07041 -1.32843,0.103685 -2.13655,0.103033 -3.23876,0.283215 -4.82899,0.789407 -0.42134,0.134118 -0.79576,0.243099 -0.83204,0.242178 -0.0363,-9.2e-4 -0.13097,-0.175936 -0.21041,-0.388921 z"
               id="path228"
               inkscape:connector-curvature="0" />
            <path
               style="fill:#ffffff;fill-opacity:1;stroke:#000000;stroke-width:0.09022512;stroke-opacity:1"
               d="m 147.87254,63.21367 c -0.76631,-2.539692 -1.46542,-3.331822 -2.32358,-4.998542 -0.30965,-0.367125 -1.11484,-0.973658 -1.09466,-0.992837 0.15135,-0.143859 1.48109,-1.220733 2.7837,1.776011 0.41165,0.947038 1.61891,3.406736 1.953,4.743243 0.19704,0.788236 -0.24213,0.794781 -0.41278,0.855345 -0.10084,0.03579 -0.54369,-0.183513 -0.90568,-1.38322 z"
               id="path237"
               inkscape:connector-curvature="0"
               sodipodi:nodetypes="scssscs" />
            <path
               style="fill:#ffffff;fill-opacity:1;stroke:#000000;stroke-width:0.09022512;stroke-opacity:1"
               d="m 143.6129,75.317252 c -0.28042,-0.427412 -0.28288,-0.836082 -0.0116,-1.930195 0.10623,-0.428508 0.29271,-1.336503 0.4144,-2.017765 0.28053,-1.570477 0.33889,-1.798243 0.71015,-2.771273 0.91285,-2.392552 1.98642,-3.653632 3.89996,-4.58115 1.63758,-0.793754 3.67217,-1.209333 6.0019,-1.225929 1.75708,-0.01252 2.06107,0.03014 2.05452,0.288265 -0.004,0.151532 -0.10118,0.173758 -0.88511,0.202102 -2.793,0.100983 -5.24588,0.533827 -6.5681,1.159028 -0.67263,0.318047 -2.01972,1.384424 -2.67293,2.115923 -1.16575,1.305482 -1.43118,1.940442 -2.19146,5.242447 -0.45805,1.989379 -0.52453,2.391273 -0.50922,3.078282 0.01,0.434594 0.0106,0.789994 0.002,0.789777 -0.009,-2.16e-4 -0.11858,-0.157497 -0.24456,-0.349512 z"
               id="path235"
               inkscape:connector-curvature="0" />
          </g>
          <path
             sodipodi:nodetypes="cccccccscccccccccccscccccccccccccccccccccccsscsscccccccscccccccc"
             style="fill:#ffffff;fill-opacity:0.98095236;stroke:#000000;stroke-width:0.10583333;stroke-miterlimit:4;stroke-dasharray:none;stroke-opacity:1"
             d="m 167.7232,85.756162 c -0.16138,-0.03635 -0.77319,-0.303443 -1.24495,-0.54351 -0.49979,-0.254328 -0.69001,-0.42809 -1.03136,-0.942133 l -0.26816,-0.40381 -0.77185,-2.25552 c -0.73821,-2.157251 -0.77245,-2.268445 -0.78588,-2.552105 -0.0235,-0.497141 0.15893,-1.055182 0.53139,-1.625211 0.38262,-0.585581 0.77264,-0.916577 1.23836,-1.050951 0.5824,-0.16804 1.08192,-0.18451 1.44752,-0.04772 0.42033,0.157263 0.9591,0.608605 1.14673,0.960638 0.25242,0.473583 0.45707,1.650497 0.34038,1.957425 -0.0826,0.217257 -0.16727,0.01161 -0.20543,-0.498954 -0.035,-0.468011 -0.0732,-0.699003 -0.14326,-0.866759 -0.16888,-0.404188 -0.82852,-1.139608 -1.17223,-1.306907 -0.57148,-0.278156 -1.35132,-0.02863 -1.98046,0.633688 -0.42501,0.447429 -0.57076,0.854696 -0.5996,1.675513 -0.0287,0.818155 0.0692,1.415137 0.23727,1.446279 0.042,0.0078 0.12448,-0.05479 0.25056,-0.190132 0.10336,-0.110956 0.23025,-0.217657 0.28198,-0.237115 0.0517,-0.01945 0.22196,-0.03538 0.3783,-0.03538 0.25268,0 0.28301,-0.0065 0.27311,-0.05846 -0.008,-0.03967 -0.0969,-0.08806 -0.27807,-0.150553 -0.14682,-0.05065 -0.32278,-0.116586 -0.39103,-0.146526 l -0.1241,-0.05444 0.37466,-0.417133 c 0.1831,-0.255508 0.37827,-0.40352 0.50648,-0.427571 0.11975,-0.02246 0.72597,0.03267 0.99718,0.09069 l 0.16014,0.03426 -0.10571,0.18902 c -0.30689,0.548709 -0.58939,0.893737 -0.75966,0.927791 -0.14738,0.02948 -0.1883,0.08858 -0.14579,0.210537 0.0434,0.124545 -0.0233,0.466011 -0.14134,0.723961 -0.10474,0.22879 -0.12851,0.22982 -0.70349,0.03045 -0.47084,-0.163261 -0.53569,-0.174964 -0.56379,-0.101735 -0.0522,0.136091 0.35855,1.255699 0.90765,2.473875 l 0.16565,0.367496 0.51927,0.03844 c 0.2856,0.02114 0.53528,0.04834 0.55486,0.06044 0.0549,0.03391 0.0432,0.08522 -0.0688,0.302027 -0.0569,0.11025 -0.14068,0.272786 -0.18611,0.361194 -0.0454,0.08841 -0.0743,0.182369 -0.0642,0.208803 0.0294,0.07674 0.14766,0.05566 0.20848,-0.03717 0.0681,-0.103941 0.1744,-0.16008 0.40631,-0.214595 0.22948,-0.05394 0.27438,-0.102606 0.27438,-0.297376 0,-0.316857 0.27752,-0.605512 0.58215,-0.605512 0.35416,0 0.58173,0.117779 0.54102,0.28 -0.0559,0.222663 -0.46404,0.588627 -0.65649,0.588627 -0.1498,0 -0.19941,0.03301 -0.19941,0.132702 0,0.101282 -0.0587,0.188055 -0.32412,0.478911 -0.17738,0.194408 -0.21327,0.28693 -0.13525,0.348727 0.12132,0.0961 0.82079,0.242519 1.15697,0.242186 0.25366,-2.65e-4 0.41782,-0.0507 0.55397,-0.170236 0.18868,-0.165666 0.23538,-0.342167 0.23336,-0.881951 -0.002,-0.499764 -0.0166,-0.597215 -0.26472,-1.753957 -0.27218,-1.26877 -0.42771,-2.386534 -0.39164,-2.814683 0.007,-0.08728 0.0263,-0.158689 0.0421,-0.158689 0.052,0 0.1586,0.465413 0.2983,1.302938 0.0567,0.339934 0.13931,0.813501 0.18357,1.052372 0.0822,0.443926 0.23364,1.491456 0.28486,1.971114 0.0255,0.23848 0.0176,0.315855 -0.0728,0.718286 -0.0557,0.24806 -0.13021,0.498424 -0.16555,0.556368 -0.0903,0.148122 -0.31374,0.34226 -0.4763,0.413861 -0.16204,0.07138 -0.48992,0.105479 -0.65555,0.06817 z"
             id="path1353"
             inkscape:connector-curvature="0" />
        </g>
      </g>
    </g>
  </g>
</svg>
